<svg width="60" height="43" viewBox="0 0 60 43" fill="none" xmlns="http://www.w3.org/2000/svg">
<path d="M13.4561 21.3428C14.105 23.6241 14.9893 25.8316 16.0946 27.93C16.5994 28.859 17.1042 29.7881 18.0209 30.3734C18.1798 30.4732 18.3548 30.5445 18.5381 30.584C19.8884 30.872 20.6285 29.785 21.1055 28.7909C21.8172 27.2312 22.3922 25.6127 22.8243 23.9535C22.9079 23.6438 22.9884 23.3341 23.0689 23.0245C23.2237 22.4329 23.3786 21.8352 23.5117 21.2375L29.4702 5.31941C30.7079 3.67099 32.3125 2.33338 34.1567 1.41258C36.0009 0.491786 38.0343 0.0130853 40.0956 0.0144077C43.064 -0.00386678 45.95 0.990187 48.2777 2.8326C52.1736 5.78085 54.4932 11.5876 54.4932 11.5876C54.8314 12.3436 55.0054 13.1626 55.0042 13.9908C55.0026 14.7578 54.8499 15.517 54.5548 16.225C54.26 16.933 53.8283 17.576 53.2848 18.1172C52.7413 18.6584 52.0965 19.0873 51.3873 19.3793C50.6781 19.6713 49.9181 19.8208 49.151 19.8192C48.2981 19.8186 47.4554 19.6305 46.6834 19.2682C45.911 18.9059 45.2278 18.3782 44.6822 17.7225L44.6264 17.6544C44.252 17.1489 43.9398 16.5999 43.6973 16.0192C43.3762 15.2905 43.0163 14.5792 42.6196 13.8886C42.409 13.5324 42.1737 13.1949 41.9321 12.8604C41.7234 12.5614 41.4766 12.2908 41.1981 12.0552C40.65 11.6123 39.9594 11.4358 39.3152 11.8167C39.2842 11.8345 39.2542 11.8542 39.2254 11.8756C38.5627 12.3308 38.0981 13.2506 37.7761 13.9567C36.847 15.9573 36.3143 18.0075 35.7878 20.1134C35.6887 20.5191 35.5896 20.9248 35.4967 21.3335L33.0347 29.3855L29.5631 37.041C28.3203 38.6449 26.7296 39.946 24.9111 40.8462C23.0927 41.7462 21.0936 42.2222 19.0646 42.2377C10.6317 42.4173 6.63047 34.8051 6.63047 34.8051C1.82718 26.9266 0.411889 16.5333 0.0743256 13.2103C0.00309666 12.5197 4.03511e-07 12.1078 4.03511e-07 12.1078C-0.000390705 11.067 0.283541 10.0458 0.821143 9.15454C1.35875 8.26324 2.12959 7.53575 3.05046 7.05059C4.00262 6.56812 5.0622 6.33681 6.1288 6.37856C7.12112 6.42006 8.08661 6.71312 8.93461 7.23021C9.59354 7.6246 10.1631 8.15197 10.6069 8.77866C11.3997 9.90594 11.5793 11.3088 11.7373 12.6498C12.0652 15.5906 12.6402 18.4985 13.4561 21.3428Z" fill="url(#paint0_linear)"/>
<path d="M13.4561 21.3428C14.105 23.6241 14.9893 25.8316 16.0946 27.93C16.5994 28.859 17.1042 29.7881 18.0209 30.3734C18.1798 30.4732 18.3548 30.5445 18.5381 30.584C19.8884 30.872 20.6285 29.785 21.1055 28.7909C21.8172 27.2312 22.3922 25.6127 22.8243 23.9535C22.9079 23.6438 22.9884 23.3341 23.0689 23.0245C23.2237 22.4329 23.3786 21.8352 23.5117 21.2375L29.4702 5.31941C30.7079 3.67099 32.3125 2.33338 34.1567 1.41258C36.0009 0.491786 38.0343 0.0130853 40.0956 0.0144077C43.064 -0.00386678 45.95 0.990187 48.2777 2.8326C52.1736 5.78085 54.4932 11.5876 54.4932 11.5876C54.8314 12.3436 55.0054 13.1626 55.0042 13.9908C55.0026 14.7578 54.8499 15.517 54.5548 16.225C54.26 16.933 53.8283 17.576 53.2848 18.1172C52.7413 18.6584 52.0965 19.0873 51.3873 19.3793C50.6781 19.6713 49.9181 19.8208 49.151 19.8192C48.2981 19.8186 47.4554 19.6305 46.6834 19.2682C45.911 18.9059 45.2278 18.3782 44.6822 17.7225L44.6264 17.6544C44.252 17.1489 43.9398 16.5999 43.6973 16.0192C43.3762 15.2905 43.0163 14.5792 42.6196 13.8886C42.409 13.5324 42.1737 13.1949 41.9321 12.8604C41.7234 12.5614 41.4766 12.2908 41.1981 12.0552C40.65 11.6123 39.9594 11.4358 39.3152 11.8167C39.2842 11.8345 39.2542 11.8542 39.2254 11.8756C38.5627 12.3308 38.0981 13.2506 37.7761 13.9567C36.847 15.9573 36.3143 18.0075 35.7878 20.1134C35.6887 20.5191 35.5896 20.9248 35.4967 21.3335L33.0347 29.3855L29.5631 37.041C28.3203 38.6449 26.7296 39.946 24.9111 40.8462C23.0927 41.7462 21.0936 42.2222 19.0646 42.2377C10.6317 42.4173 6.63047 34.8051 6.63047 34.8051C1.82718 26.9266 0.411889 16.5333 0.0743256 13.2103C0.00309666 12.5197 4.03511e-07 12.1078 4.03511e-07 12.1078C-0.000390705 11.067 0.283541 10.0458 0.821143 9.15454C1.35875 8.26324 2.12959 7.53575 3.05046 7.05059C4.00262 6.56812 5.0622 6.33681 6.1288 6.37856C7.12112 6.42006 8.08661 6.71312 8.93461 7.23021C9.59354 7.6246 10.1631 8.15197 10.6069 8.77866C11.3997 9.90594 11.5793 11.3088 11.7373 12.6498C12.0652 15.5906 12.6402 18.4985 13.4561 21.3428Z" fill="url(#paint1_radial)"/>
<path d="M13.4561 21.3428C14.105 23.6241 14.9893 25.8316 16.0946 27.93C16.5994 28.859 17.1042 29.7881 18.0209 30.3734C18.1798 30.4732 18.3548 30.5445 18.5381 30.584C19.8884 30.872 20.6285 29.785 21.1055 28.7909C21.8172 27.2312 22.3922 25.6127 22.8243 23.9535C22.9079 23.6438 22.9884 23.3341 23.0689 23.0245C23.2237 22.4329 23.3786 21.8352 23.5117 21.2375L29.4702 5.31941C30.7079 3.67099 32.3125 2.33338 34.1567 1.41258C36.0009 0.491786 38.0343 0.0130853 40.0956 0.0144077C43.064 -0.00386678 45.95 0.990187 48.2777 2.8326C52.1736 5.78085 54.4932 11.5876 54.4932 11.5876C54.8314 12.3436 55.0054 13.1626 55.0042 13.9908C55.0026 14.7578 54.8499 15.517 54.5548 16.225C54.26 16.933 53.8283 17.576 53.2848 18.1172C52.7413 18.6584 52.0965 19.0873 51.3873 19.3793C50.6781 19.6713 49.9181 19.8208 49.151 19.8192C48.2981 19.8186 47.4554 19.6305 46.6834 19.2682C45.911 18.9059 45.2278 18.3782 44.6822 17.7225L44.6264 17.6544C44.252 17.1489 43.9398 16.5999 43.6973 16.0192C43.3762 15.2905 43.0163 14.5792 42.6196 13.8886C42.409 13.5324 42.1737 13.1949 41.9321 12.8604C41.7234 12.5614 41.4766 12.2908 41.1981 12.0552C40.65 11.6123 39.9594 11.4358 39.3152 11.8167C39.2842 11.8345 39.2542 11.8542 39.2254 11.8756C38.5627 12.3308 38.0981 13.2506 37.7761 13.9567C36.847 15.9573 36.3143 18.0075 35.7878 20.1134C35.6887 20.5191 35.5896 20.9248 35.4967 21.3335L33.0347 29.3855L29.5631 37.041C28.3203 38.6449 26.7296 39.946 24.9111 40.8462C23.0927 41.7462 21.0936 42.2222 19.0646 42.2377C10.6317 42.4173 6.63047 34.8051 6.63047 34.8051C1.82718 26.9266 0.411889 16.5333 0.0743256 13.2103C0.00309666 12.5197 4.03511e-07 12.1078 4.03511e-07 12.1078C-0.000390705 11.067 0.283541 10.0458 0.821143 9.15454C1.35875 8.26324 2.12959 7.53575 3.05046 7.05059C4.00262 6.56812 5.0622 6.33681 6.1288 6.37856C7.12112 6.42006 8.08661 6.71312 8.93461 7.23021C9.59354 7.6246 10.1631 8.15197 10.6069 8.77866C11.3997 9.90594 11.5793 11.3088 11.7373 12.6498C12.0652 15.5906 12.6402 18.4985 13.4561 21.3428Z" fill="url(#paint2_radial)"/>
<path d="M13.4561 21.3428C14.105 23.6241 14.9893 25.8316 16.0946 27.93C16.5994 28.859 17.1042 29.7881 18.0209 30.3734C18.1798 30.4732 18.3548 30.5445 18.5381 30.584C19.8884 30.872 20.6285 29.785 21.1055 28.7909C21.8172 27.2312 22.3922 25.6127 22.8243 23.9535C22.9079 23.6438 22.9884 23.3341 23.0689 23.0245C23.2237 22.4329 23.3786 21.8352 23.5117 21.2375L29.4702 5.31941C30.7079 3.67099 32.3125 2.33338 34.1567 1.41258C36.0009 0.491786 38.0343 0.0130853 40.0956 0.0144077C43.064 -0.00386678 45.95 0.990187 48.2777 2.8326C52.1736 5.78085 54.4932 11.5876 54.4932 11.5876C54.8314 12.3436 55.0054 13.1626 55.0042 13.9908C55.0026 14.7578 54.8499 15.517 54.5548 16.225C54.26 16.933 53.8283 17.576 53.2848 18.1172C52.7413 18.6584 52.0965 19.0873 51.3873 19.3793C50.6781 19.6713 49.9181 19.8208 49.151 19.8192C48.2981 19.8186 47.4554 19.6305 46.6834 19.2682C45.911 18.9059 45.2278 18.3782 44.6822 17.7225L44.6264 17.6544C44.252 17.1489 43.9398 16.5999 43.6973 16.0192C43.3762 15.2905 43.0163 14.5792 42.6196 13.8886C42.409 13.5324 42.1737 13.1949 41.9321 12.8604C41.7234 12.5614 41.4766 12.2908 41.1981 12.0552C40.65 11.6123 39.9594 11.4358 39.3152 11.8167C39.2842 11.8345 39.2542 11.8542 39.2254 11.8756C38.5627 12.3308 38.0981 13.2506 37.7761 13.9567C36.847 15.9573 36.3143 18.0075 35.7878 20.1134C35.6887 20.5191 35.5896 20.9248 35.4967 21.3335L33.0347 29.3855L29.5631 37.041C28.3203 38.6449 26.7296 39.946 24.9111 40.8462C23.0927 41.7462 21.0936 42.2222 19.0646 42.2377C10.6317 42.4173 6.63047 34.8051 6.63047 34.8051C1.82718 26.9266 0.411889 16.5333 0.0743256 13.2103C0.00309666 12.5197 4.03511e-07 12.1078 4.03511e-07 12.1078C-0.000390705 11.067 0.283541 10.0458 0.821143 9.15454C1.35875 8.26324 2.12959 7.53575 3.05046 7.05059C4.00262 6.56812 5.0622 6.33681 6.1288 6.37856C7.12112 6.42006 8.08661 6.71312 8.93461 7.23021C9.59354 7.6246 10.1631 8.15197 10.6069 8.77866C11.3997 9.90594 11.5793 11.3088 11.7373 12.6498C12.0652 15.5906 12.6402 18.4985 13.4561 21.3428Z" fill="url(#paint3_radial)"/>
<path d="M13.4561 21.3428C14.105 23.6241 14.9893 25.8316 16.0946 27.93C16.5994 28.859 17.1042 29.7881 18.0209 30.3734C18.1798 30.4732 18.3548 30.5445 18.5381 30.584C19.8884 30.872 20.6285 29.785 21.1055 28.7909C21.8172 27.2312 22.3922 25.6127 22.8243 23.9535C22.9079 23.6438 22.9884 23.3341 23.0689 23.0245C23.2237 22.4329 23.3786 21.8352 23.5117 21.2375L29.4702 5.31941C30.7079 3.67099 32.3125 2.33338 34.1567 1.41258C36.0009 0.491786 38.0343 0.0130853 40.0956 0.0144077C43.064 -0.00386678 45.95 0.990187 48.2777 2.8326C52.1736 5.78085 54.4932 11.5876 54.4932 11.5876C54.8314 12.3436 55.0054 13.1626 55.0042 13.9908C55.0026 14.7578 54.8499 15.517 54.5548 16.225C54.26 16.933 53.8283 17.576 53.2848 18.1172C52.7413 18.6584 52.0965 19.0873 51.3873 19.3793C50.6781 19.6713 49.9181 19.8208 49.151 19.8192C48.2981 19.8186 47.4554 19.6305 46.6834 19.2682C45.911 18.9059 45.2278 18.3782 44.6822 17.7225L44.6264 17.6544C44.252 17.1489 43.9398 16.5999 43.6973 16.0192C43.3762 15.2905 43.0163 14.5792 42.6196 13.8886C42.409 13.5324 42.1737 13.1949 41.9321 12.8604C41.7234 12.5614 41.4766 12.2908 41.1981 12.0552C40.65 11.6123 39.9594 11.4358 39.3152 11.8167C39.2842 11.8345 39.2542 11.8542 39.2254 11.8756C38.5627 12.3308 38.0981 13.2506 37.7761 13.9567C36.847 15.9573 36.3143 18.0075 35.7878 20.1134C35.6887 20.5191 35.5896 20.9248 35.4967 21.3335L33.0347 29.3855L29.5631 37.041C28.3203 38.6449 26.7296 39.946 24.9111 40.8462C23.0927 41.7462 21.0936 42.2222 19.0646 42.2377C10.6317 42.4173 6.63047 34.8051 6.63047 34.8051C1.82718 26.9266 0.411889 16.5333 0.0743256 13.2103C0.00309666 12.5197 4.03511e-07 12.1078 4.03511e-07 12.1078C-0.000390705 11.067 0.283541 10.0458 0.821143 9.15454C1.35875 8.26324 2.12959 7.53575 3.05046 7.05059C4.00262 6.56812 5.0622 6.33681 6.1288 6.37856C7.12112 6.42006 8.08661 6.71312 8.93461 7.23021C9.59354 7.6246 10.1631 8.15197 10.6069 8.77866C11.3997 9.90594 11.5793 11.3088 11.7373 12.6498C12.0652 15.5906 12.6402 18.4985 13.4561 21.3428Z" fill="url(#paint4_radial)"/>
<path d="M13.4561 21.3428C14.105 23.6241 14.9893 25.8316 16.0946 27.93C16.5994 28.859 17.1042 29.7881 18.0209 30.3734C18.1798 30.4732 18.3548 30.5445 18.5381 30.584C19.8884 30.872 20.6285 29.785 21.1055 28.7909C21.8172 27.2312 22.3922 25.6127 22.8243 23.9535C22.9079 23.6438 22.9884 23.3341 23.0689 23.0245C23.2237 22.4329 23.3786 21.8352 23.5117 21.2375L29.4702 5.31941C30.7079 3.67099 32.3125 2.33338 34.1567 1.41258C36.0009 0.491786 38.0343 0.0130853 40.0956 0.0144077C43.064 -0.00386678 45.95 0.990187 48.2777 2.8326C52.1736 5.78085 54.4932 11.5876 54.4932 11.5876C54.8314 12.3436 55.0054 13.1626 55.0042 13.9908C55.0026 14.7578 54.8499 15.517 54.5548 16.225C54.26 16.933 53.8283 17.576 53.2848 18.1172C52.7413 18.6584 52.0965 19.0873 51.3873 19.3793C50.6781 19.6713 49.9181 19.8208 49.151 19.8192C48.2981 19.8186 47.4554 19.6305 46.6834 19.2682C45.911 18.9059 45.2278 18.3782 44.6822 17.7225L44.6264 17.6544C44.252 17.1489 43.9398 16.5999 43.6973 16.0192C43.3762 15.2905 43.0163 14.5792 42.6196 13.8886C42.409 13.5324 42.1737 13.1949 41.9321 12.8604C41.7234 12.5614 41.4766 12.2908 41.1981 12.0552C40.65 11.6123 39.9594 11.4358 39.3152 11.8167C39.2842 11.8345 39.2542 11.8542 39.2254 11.8756C38.5627 12.3308 38.0981 13.2506 37.7761 13.9567C36.847 15.9573 36.3143 18.0075 35.7878 20.1134C35.6887 20.5191 35.5896 20.9248 35.4967 21.3335L33.0347 29.3855L29.5631 37.041C28.3203 38.6449 26.7296 39.946 24.9111 40.8462C23.0927 41.7462 21.0936 42.2222 19.0646 42.2377C10.6317 42.4173 6.63047 34.8051 6.63047 34.8051C1.82718 26.9266 0.411889 16.5333 0.0743256 13.2103C0.00309666 12.5197 4.03511e-07 12.1078 4.03511e-07 12.1078C-0.000390705 11.067 0.283541 10.0458 0.821143 9.15454C1.35875 8.26324 2.12959 7.53575 3.05046 7.05059C4.00262 6.56812 5.0622 6.33681 6.1288 6.37856C7.12112 6.42006 8.08661 6.71312 8.93461 7.23021C9.59354 7.6246 10.1631 8.15197 10.6069 8.77866C11.3997 9.90594 11.5793 11.3088 11.7373 12.6498C12.0652 15.5906 12.6402 18.4985 13.4561 21.3428Z" fill="url(#paint5_radial)"/>
<path d="M13.4561 21.3428C14.105 23.6241 14.9893 25.8316 16.0946 27.93C16.5994 28.859 17.1042 29.7881 18.0209 30.3734C18.1798 30.4732 18.3548 30.5445 18.5381 30.584C19.8884 30.872 20.6285 29.785 21.1055 28.7909C21.8172 27.2312 22.3922 25.6127 22.8243 23.9535C22.9079 23.6438 22.9884 23.3341 23.0689 23.0245C23.2237 22.4329 23.3786 21.8352 23.5117 21.2375L29.4702 5.31941C30.7079 3.67099 32.3125 2.33338 34.1567 1.41258C36.0009 0.491786 38.0343 0.0130853 40.0956 0.0144077C43.064 -0.00386678 45.95 0.990187 48.2777 2.8326C52.1736 5.78085 54.4932 11.5876 54.4932 11.5876C54.8314 12.3436 55.0054 13.1626 55.0042 13.9908C55.0026 14.7578 54.8499 15.517 54.5548 16.225C54.26 16.933 53.8283 17.576 53.2848 18.1172C52.7413 18.6584 52.0965 19.0873 51.3873 19.3793C50.6781 19.6713 49.9181 19.8208 49.151 19.8192C48.2981 19.8186 47.4554 19.6305 46.6834 19.2682C45.911 18.9059 45.2278 18.3782 44.6822 17.7225L44.6264 17.6544C44.252 17.1489 43.9398 16.5999 43.6973 16.0192C43.3762 15.2905 43.0163 14.5792 42.6196 13.8886C42.409 13.5324 42.1737 13.1949 41.9321 12.8604C41.7234 12.5614 41.4766 12.2908 41.1981 12.0552C40.65 11.6123 39.9594 11.4358 39.3152 11.8167C39.2842 11.8345 39.2542 11.8542 39.2254 11.8756C38.5627 12.3308 38.0981 13.2506 37.7761 13.9567C36.847 15.9573 36.3143 18.0075 35.7878 20.1134C35.6887 20.5191 35.5896 20.9248 35.4967 21.3335L33.0347 29.3855L29.5631 37.041C28.3203 38.6449 26.7296 39.946 24.9111 40.8462C23.0927 41.7462 21.0936 42.2222 19.0646 42.2377C10.6317 42.4173 6.63047 34.8051 6.63047 34.8051C1.82718 26.9266 0.411889 16.5333 0.0743256 13.2103C0.00309666 12.5197 4.03511e-07 12.1078 4.03511e-07 12.1078C-0.000390705 11.067 0.283541 10.0458 0.821143 9.15454C1.35875 8.26324 2.12959 7.53575 3.05046 7.05059C4.00262 6.56812 5.0622 6.33681 6.1288 6.37856C7.12112 6.42006 8.08661 6.71312 8.93461 7.23021C9.59354 7.6246 10.1631 8.15197 10.6069 8.77866C11.3997 9.90594 11.5793 11.3088 11.7373 12.6498C12.0652 15.5906 12.6402 18.4985 13.4561 21.3428Z" fill="url(#paint6_radial)"/>
<path d="M13.4561 21.3428C14.105 23.6241 14.9893 25.8316 16.0946 27.93C16.5994 28.859 17.1042 29.7881 18.0209 30.3734C18.1798 30.4732 18.3548 30.5445 18.5381 30.584C19.8884 30.872 20.6285 29.785 21.1055 28.7909C21.8172 27.2312 22.3922 25.6127 22.8243 23.9535C22.9079 23.6438 22.9884 23.3341 23.0689 23.0245C23.2237 22.4329 23.3786 21.8352 23.5117 21.2375L29.4702 5.31941C30.7079 3.67099 32.3125 2.33338 34.1567 1.41258C36.0009 0.491786 38.0343 0.0130853 40.0956 0.0144077C43.064 -0.00386678 45.95 0.990187 48.2777 2.8326C52.1736 5.78085 54.4932 11.5876 54.4932 11.5876C54.8314 12.3436 55.0054 13.1626 55.0042 13.9908C55.0026 14.7578 54.8499 15.517 54.5548 16.225C54.26 16.933 53.8283 17.576 53.2848 18.1172C52.7413 18.6584 52.0965 19.0873 51.3873 19.3793C50.6781 19.6713 49.9181 19.8208 49.151 19.8192C48.2981 19.8186 47.4554 19.6305 46.6834 19.2682C45.911 18.9059 45.2278 18.3782 44.6822 17.7225L44.6264 17.6544C44.252 17.1489 43.9398 16.5999 43.6973 16.0192C43.3762 15.2905 43.0163 14.5792 42.6196 13.8886C42.409 13.5324 42.1737 13.1949 41.9321 12.8604C41.7234 12.5614 41.4766 12.2908 41.1981 12.0552C40.65 11.6123 39.9594 11.4358 39.3152 11.8167C39.2842 11.8345 39.2542 11.8542 39.2254 11.8756C38.5627 12.3308 38.0981 13.2506 37.7761 13.9567C36.847 15.9573 36.3143 18.0075 35.7878 20.1134C35.6887 20.5191 35.5896 20.9248 35.4967 21.3335L33.0347 29.3855L29.5631 37.041C28.3203 38.6449 26.7296 39.946 24.9111 40.8462C23.0927 41.7462 21.0936 42.2222 19.0646 42.2377C10.6317 42.4173 6.63047 34.8051 6.63047 34.8051C1.82718 26.9266 0.411889 16.5333 0.0743256 13.2103C0.00309666 12.5197 4.03511e-07 12.1078 4.03511e-07 12.1078C-0.000390705 11.067 0.283541 10.0458 0.821143 9.15454C1.35875 8.26324 2.12959 7.53575 3.05046 7.05059C4.00262 6.56812 5.0622 6.33681 6.1288 6.37856C7.12112 6.42006 8.08661 6.71312 8.93461 7.23021C9.59354 7.6246 10.1631 8.15197 10.6069 8.77866C11.3997 9.90594 11.5793 11.3088 11.7373 12.6498C12.0652 15.5906 12.6402 18.4985 13.4561 21.3428Z" fill="url(#paint7_radial)"/>
<path d="M13.4561 21.3428C14.105 23.6241 14.9893 25.8316 16.0946 27.93C16.5994 28.859 17.1042 29.7881 18.0209 30.3734C18.1798 30.4732 18.3548 30.5445 18.5381 30.584C19.8884 30.872 20.6285 29.785 21.1055 28.7909C21.8172 27.2312 22.3922 25.6127 22.8243 23.9535C22.9079 23.6438 22.9884 23.3341 23.0689 23.0245C23.2237 22.4329 23.3786 21.8352 23.5117 21.2375L29.4702 5.31941C30.7079 3.67099 32.3125 2.33338 34.1567 1.41258C36.0009 0.491786 38.0343 0.0130853 40.0956 0.0144077C43.064 -0.00386678 45.95 0.990187 48.2777 2.8326C52.1736 5.78085 54.4932 11.5876 54.4932 11.5876C54.8314 12.3436 55.0054 13.1626 55.0042 13.9908C55.0026 14.7578 54.8499 15.517 54.5548 16.225C54.26 16.933 53.8283 17.576 53.2848 18.1172C52.7413 18.6584 52.0965 19.0873 51.3873 19.3793C50.6781 19.6713 49.9181 19.8208 49.151 19.8192C48.2981 19.8186 47.4554 19.6305 46.6834 19.2682C45.911 18.9059 45.2278 18.3782 44.6822 17.7225L44.6264 17.6544C44.252 17.1489 43.9398 16.5999 43.6973 16.0192C43.3762 15.2905 43.0163 14.5792 42.6196 13.8886C42.409 13.5324 42.1737 13.1949 41.9321 12.8604C41.7234 12.5614 41.4766 12.2908 41.1981 12.0552C40.65 11.6123 39.9594 11.4358 39.3152 11.8167C39.2842 11.8345 39.2542 11.8542 39.2254 11.8756C38.5627 12.3308 38.0981 13.2506 37.7761 13.9567C36.847 15.9573 36.3143 18.0075 35.7878 20.1134C35.6887 20.5191 35.5896 20.9248 35.4967 21.3335L33.0347 29.3855L29.5631 37.041C28.3203 38.6449 26.7296 39.946 24.9111 40.8462C23.0927 41.7462 21.0936 42.2222 19.0646 42.2377C10.6317 42.4173 6.63047 34.8051 6.63047 34.8051C1.82718 26.9266 0.411889 16.5333 0.0743256 13.2103C0.00309666 12.5197 4.03511e-07 12.1078 4.03511e-07 12.1078C-0.000390705 11.067 0.283541 10.0458 0.821143 9.15454C1.35875 8.26324 2.12959 7.53575 3.05046 7.05059C4.00262 6.56812 5.0622 6.33681 6.1288 6.37856C7.12112 6.42006 8.08661 6.71312 8.93461 7.23021C9.59354 7.6246 10.1631 8.15197 10.6069 8.77866C11.3997 9.90594 11.5793 11.3088 11.7373 12.6498C12.0652 15.5906 12.6402 18.4985 13.4561 21.3428Z" fill="url(#paint8_radial)"/>
<path d="M13.4561 21.3428C14.105 23.6241 14.9893 25.8316 16.0946 27.93C16.5994 28.859 17.1042 29.7881 18.0209 30.3734C18.1798 30.4732 18.3548 30.5445 18.5381 30.584C19.8884 30.872 20.6285 29.785 21.1055 28.7909C21.8172 27.2312 22.3922 25.6127 22.8243 23.9535C22.9079 23.6438 22.9884 23.3341 23.0689 23.0245C23.2237 22.4329 23.3786 21.8352 23.5117 21.2375L29.4702 5.31941C30.7079 3.67099 32.3125 2.33338 34.1567 1.41258C36.0009 0.491786 38.0343 0.0130853 40.0956 0.0144077C43.064 -0.00386678 45.95 0.990187 48.2777 2.8326C52.1736 5.78085 54.4932 11.5876 54.4932 11.5876C54.8314 12.3436 55.0054 13.1626 55.0042 13.9908C55.0026 14.7578 54.8499 15.517 54.5548 16.225C54.26 16.933 53.8283 17.576 53.2848 18.1172C52.7413 18.6584 52.0965 19.0873 51.3873 19.3793C50.6781 19.6713 49.9181 19.8208 49.151 19.8192C48.2981 19.8186 47.4554 19.6305 46.6834 19.2682C45.911 18.9059 45.2278 18.3782 44.6822 17.7225L44.6264 17.6544C44.252 17.1489 43.9398 16.5999 43.6973 16.0192C43.3762 15.2905 43.0163 14.5792 42.6196 13.8886C42.409 13.5324 42.1737 13.1949 41.9321 12.8604C41.7234 12.5614 41.4766 12.2908 41.1981 12.0552C40.65 11.6123 39.9594 11.4358 39.3152 11.8167C39.2842 11.8345 39.2542 11.8542 39.2254 11.8756C38.5627 12.3308 38.0981 13.2506 37.7761 13.9567C36.847 15.9573 36.3143 18.0075 35.7878 20.1134C35.6887 20.5191 35.5896 20.9248 35.4967 21.3335L33.0347 29.3855L29.5631 37.041C28.3203 38.6449 26.7296 39.946 24.9111 40.8462C23.0927 41.7462 21.0936 42.2222 19.0646 42.2377C10.6317 42.4173 6.63047 34.8051 6.63047 34.8051C1.82718 26.9266 0.411889 16.5333 0.0743256 13.2103C0.00309666 12.5197 4.03511e-07 12.1078 4.03511e-07 12.1078C-0.000390705 11.067 0.283541 10.0458 0.821143 9.15454C1.35875 8.26324 2.12959 7.53575 3.05046 7.05059C4.00262 6.56812 5.0622 6.33681 6.1288 6.37856C7.12112 6.42006 8.08661 6.71312 8.93461 7.23021C9.59354 7.6246 10.1631 8.15197 10.6069 8.77866C11.3997 9.90594 11.5793 11.3088 11.7373 12.6498C12.0652 15.5906 12.6402 18.4985 13.4561 21.3428Z" fill="url(#paint9_radial)"/>
<path d="M13.4561 21.3428C14.105 23.6241 14.9893 25.8316 16.0946 27.93C16.5994 28.859 17.1042 29.7881 18.0209 30.3734C18.1798 30.4732 18.3548 30.5445 18.5381 30.584C19.8884 30.872 20.6285 29.785 21.1055 28.7909C21.8172 27.2312 22.3922 25.6127 22.8243 23.9535C22.9079 23.6438 22.9884 23.3341 23.0689 23.0245C23.2237 22.4329 23.3786 21.8352 23.5117 21.2375L29.4702 5.31941C30.7079 3.67099 32.3125 2.33338 34.1567 1.41258C36.0009 0.491786 38.0343 0.0130853 40.0956 0.0144077C43.064 -0.00386678 45.95 0.990187 48.2777 2.8326C52.1736 5.78085 54.4932 11.5876 54.4932 11.5876C54.8314 12.3436 55.0054 13.1626 55.0042 13.9908C55.0026 14.7578 54.8499 15.517 54.5548 16.225C54.26 16.933 53.8283 17.576 53.2848 18.1172C52.7413 18.6584 52.0965 19.0873 51.3873 19.3793C50.6781 19.6713 49.9181 19.8208 49.151 19.8192C48.2981 19.8186 47.4554 19.6305 46.6834 19.2682C45.911 18.9059 45.2278 18.3782 44.6822 17.7225L44.6264 17.6544C44.252 17.1489 43.9398 16.5999 43.6973 16.0192C43.3762 15.2905 43.0163 14.5792 42.6196 13.8886C42.409 13.5324 42.1737 13.1949 41.9321 12.8604C41.7234 12.5614 41.4766 12.2908 41.1981 12.0552C40.65 11.6123 39.9594 11.4358 39.3152 11.8167C39.2842 11.8345 39.2542 11.8542 39.2254 11.8756C38.5627 12.3308 38.0981 13.2506 37.7761 13.9567C36.847 15.9573 36.3143 18.0075 35.7878 20.1134C35.6887 20.5191 35.5896 20.9248 35.4967 21.3335L33.0347 29.3855L29.5631 37.041C28.3203 38.6449 26.7296 39.946 24.9111 40.8462C23.0927 41.7462 21.0936 42.2222 19.0646 42.2377C10.6317 42.4173 6.63047 34.8051 6.63047 34.8051C1.82718 26.9266 0.411889 16.5333 0.0743256 13.2103C0.00309666 12.5197 4.03511e-07 12.1078 4.03511e-07 12.1078C-0.000390705 11.067 0.283541 10.0458 0.821143 9.15454C1.35875 8.26324 2.12959 7.53575 3.05046 7.05059C4.00262 6.56812 5.0622 6.33681 6.1288 6.37856C7.12112 6.42006 8.08661 6.71312 8.93461 7.23021C9.59354 7.6246 10.1631 8.15197 10.6069 8.77866C11.3997 9.90594 11.5793 11.3088 11.7373 12.6498C12.0652 15.5906 12.6402 18.4985 13.4561 21.3428Z" fill="url(#paint10_radial)"/>
<path d="M13.4561 21.3428C14.105 23.6241 14.9893 25.8316 16.0946 27.93C16.5994 28.859 17.1042 29.7881 18.0209 30.3734C18.1798 30.4732 18.3548 30.5445 18.5381 30.584C19.8884 30.872 20.6285 29.785 21.1055 28.7909C21.8172 27.2312 22.3922 25.6127 22.8243 23.9535C22.9079 23.6438 22.9884 23.3341 23.0689 23.0245C23.2237 22.4329 23.3786 21.8352 23.5117 21.2375L29.4702 5.31941C30.7079 3.67099 32.3125 2.33338 34.1567 1.41258C36.0009 0.491786 38.0343 0.0130853 40.0956 0.0144077C43.064 -0.00386678 45.95 0.990187 48.2777 2.8326C52.1736 5.78085 54.4932 11.5876 54.4932 11.5876C54.8314 12.3436 55.0054 13.1626 55.0042 13.9908C55.0026 14.7578 54.8499 15.517 54.5548 16.225C54.26 16.933 53.8283 17.576 53.2848 18.1172C52.7413 18.6584 52.0965 19.0873 51.3873 19.3793C50.6781 19.6713 49.9181 19.8208 49.151 19.8192C48.2981 19.8186 47.4554 19.6305 46.6834 19.2682C45.911 18.9059 45.2278 18.3782 44.6822 17.7225L44.6264 17.6544C44.252 17.1489 43.9398 16.5999 43.6973 16.0192C43.3762 15.2905 43.0163 14.5792 42.6196 13.8886C42.409 13.5324 42.1737 13.1949 41.9321 12.8604C41.7234 12.5614 41.4766 12.2908 41.1981 12.0552C40.65 11.6123 39.9594 11.4358 39.3152 11.8167C39.2842 11.8345 39.2542 11.8542 39.2254 11.8756C38.5627 12.3308 38.0981 13.2506 37.7761 13.9567C36.847 15.9573 36.3143 18.0075 35.7878 20.1134C35.6887 20.5191 35.5896 20.9248 35.4967 21.3335L33.0347 29.3855L29.5631 37.041C28.3203 38.6449 26.7296 39.946 24.9111 40.8462C23.0927 41.7462 21.0936 42.2222 19.0646 42.2377C10.6317 42.4173 6.63047 34.8051 6.63047 34.8051C1.82718 26.9266 0.411889 16.5333 0.0743256 13.2103C0.00309666 12.5197 4.03511e-07 12.1078 4.03511e-07 12.1078C-0.000390705 11.067 0.283541 10.0458 0.821143 9.15454C1.35875 8.26324 2.12959 7.53575 3.05046 7.05059C4.00262 6.56812 5.0622 6.33681 6.1288 6.37856C7.12112 6.42006 8.08661 6.71312 8.93461 7.23021C9.59354 7.6246 10.1631 8.15197 10.6069 8.77866C11.3997 9.90594 11.5793 11.3088 11.7373 12.6498C12.0652 15.5906 12.6402 18.4985 13.4561 21.3428Z" fill="url(#paint11_radial)"/>
<path d="M13.4561 21.3428C14.105 23.6241 14.9893 25.8316 16.0946 27.93C16.5994 28.859 17.1042 29.7881 18.0209 30.3734C18.1798 30.4732 18.3548 30.5445 18.5381 30.584C19.8884 30.872 20.6285 29.785 21.1055 28.7909C21.8172 27.2312 22.3922 25.6127 22.8243 23.9535C22.9079 23.6438 22.9884 23.3341 23.0689 23.0245C23.2237 22.4329 23.3786 21.8352 23.5117 21.2375L29.4702 5.31941C30.7079 3.67099 32.3125 2.33338 34.1567 1.41258C36.0009 0.491786 38.0343 0.0130853 40.0956 0.0144077C43.064 -0.00386678 45.95 0.990187 48.2777 2.8326C52.1736 5.78085 54.4932 11.5876 54.4932 11.5876C54.8314 12.3436 55.0054 13.1626 55.0042 13.9908C55.0026 14.7578 54.8499 15.517 54.5548 16.225C54.26 16.933 53.8283 17.576 53.2848 18.1172C52.7413 18.6584 52.0965 19.0873 51.3873 19.3793C50.6781 19.6713 49.9181 19.8208 49.151 19.8192C48.2981 19.8186 47.4554 19.6305 46.6834 19.2682C45.911 18.9059 45.2278 18.3782 44.6822 17.7225L44.6264 17.6544C44.252 17.1489 43.9398 16.5999 43.6973 16.0192C43.3762 15.2905 43.0163 14.5792 42.6196 13.8886C42.409 13.5324 42.1737 13.1949 41.9321 12.8604C41.7234 12.5614 41.4766 12.2908 41.1981 12.0552C40.65 11.6123 39.9594 11.4358 39.3152 11.8167C39.2842 11.8345 39.2542 11.8542 39.2254 11.8756C38.5627 12.3308 38.0981 13.2506 37.7761 13.9567C36.847 15.9573 36.3143 18.0075 35.7878 20.1134C35.6887 20.5191 35.5896 20.9248 35.4967 21.3335L33.0347 29.3855L29.5631 37.041C28.3203 38.6449 26.7296 39.946 24.9111 40.8462C23.0927 41.7462 21.0936 42.2222 19.0646 42.2377C10.6317 42.4173 6.63047 34.8051 6.63047 34.8051C1.82718 26.9266 0.411889 16.5333 0.0743256 13.2103C0.00309666 12.5197 4.03511e-07 12.1078 4.03511e-07 12.1078C-0.000390705 11.067 0.283541 10.0458 0.821143 9.15454C1.35875 8.26324 2.12959 7.53575 3.05046 7.05059C4.00262 6.56812 5.0622 6.33681 6.1288 6.37856C7.12112 6.42006 8.08661 6.71312 8.93461 7.23021C9.59354 7.6246 10.1631 8.15197 10.6069 8.77866C11.3997 9.90594 11.5793 11.3088 11.7373 12.6498C12.0652 15.5906 12.6402 18.4985 13.4561 21.3428Z" fill="url(#paint12_radial)"/>
<path d="M13.4561 21.3428C14.105 23.6241 14.9893 25.8316 16.0946 27.93C16.5994 28.859 17.1042 29.7881 18.0209 30.3734C18.1798 30.4732 18.3548 30.5445 18.5381 30.584C19.8884 30.872 20.6285 29.785 21.1055 28.7909C21.8172 27.2312 22.3922 25.6127 22.8243 23.9535C22.9079 23.6438 22.9884 23.3341 23.0689 23.0245C23.2237 22.4329 23.3786 21.8352 23.5117 21.2375L29.4702 5.31941C30.7079 3.67099 32.3125 2.33338 34.1567 1.41258C36.0009 0.491786 38.0343 0.0130853 40.0956 0.0144077C43.064 -0.00386678 45.95 0.990187 48.2777 2.8326C52.1736 5.78085 54.4932 11.5876 54.4932 11.5876C54.8314 12.3436 55.0054 13.1626 55.0042 13.9908C55.0026 14.7578 54.8499 15.517 54.5548 16.225C54.26 16.933 53.8283 17.576 53.2848 18.1172C52.7413 18.6584 52.0965 19.0873 51.3873 19.3793C50.6781 19.6713 49.9181 19.8208 49.151 19.8192C48.2981 19.8186 47.4554 19.6305 46.6834 19.2682C45.911 18.9059 45.2278 18.3782 44.6822 17.7225L44.6264 17.6544C44.252 17.1489 43.9398 16.5999 43.6973 16.0192C43.3762 15.2905 43.0163 14.5792 42.6196 13.8886C42.409 13.5324 42.1737 13.1949 41.9321 12.8604C41.7234 12.5614 41.4766 12.2908 41.1981 12.0552C40.65 11.6123 39.9594 11.4358 39.3152 11.8167C39.2842 11.8345 39.2542 11.8542 39.2254 11.8756C38.5627 12.3308 38.0981 13.2506 37.7761 13.9567C36.847 15.9573 36.3143 18.0075 35.7878 20.1134C35.6887 20.5191 35.5896 20.9248 35.4967 21.3335L33.0347 29.3855L29.5631 37.041C28.3203 38.6449 26.7296 39.946 24.9111 40.8462C23.0927 41.7462 21.0936 42.2222 19.0646 42.2377C10.6317 42.4173 6.63047 34.8051 6.63047 34.8051C1.82718 26.9266 0.411889 16.5333 0.0743256 13.2103C0.00309666 12.5197 4.03511e-07 12.1078 4.03511e-07 12.1078C-0.000390705 11.067 0.283541 10.0458 0.821143 9.15454C1.35875 8.26324 2.12959 7.53575 3.05046 7.05059C4.00262 6.56812 5.0622 6.33681 6.1288 6.37856C7.12112 6.42006 8.08661 6.71312 8.93461 7.23021C9.59354 7.6246 10.1631 8.15197 10.6069 8.77866C11.3997 9.90594 11.5793 11.3088 11.7373 12.6498C12.0652 15.5906 12.6402 18.4985 13.4561 21.3428Z" fill="url(#paint13_radial)"/>
<path d="M13.4561 21.3428C14.105 23.6241 14.9893 25.8316 16.0946 27.93C16.5994 28.859 17.1042 29.7881 18.0209 30.3734C18.1798 30.4732 18.3548 30.5445 18.5381 30.584C19.8884 30.872 20.6285 29.785 21.1055 28.7909C21.8172 27.2312 22.3922 25.6127 22.8243 23.9535C22.9079 23.6438 22.9884 23.3341 23.0689 23.0245C23.2237 22.4329 23.3786 21.8352 23.5117 21.2375L29.4702 5.31941C30.7079 3.67099 32.3125 2.33338 34.1567 1.41258C36.0009 0.491786 38.0343 0.0130853 40.0956 0.0144077C43.064 -0.00386678 45.95 0.990187 48.2777 2.8326C52.1736 5.78085 54.4932 11.5876 54.4932 11.5876C54.8314 12.3436 55.0054 13.1626 55.0042 13.9908C55.0026 14.7578 54.8499 15.517 54.5548 16.225C54.26 16.933 53.8283 17.576 53.2848 18.1172C52.7413 18.6584 52.0965 19.0873 51.3873 19.3793C50.6781 19.6713 49.9181 19.8208 49.151 19.8192C48.2981 19.8186 47.4554 19.6305 46.6834 19.2682C45.911 18.9059 45.2278 18.3782 44.6822 17.7225L44.6264 17.6544C44.252 17.1489 43.9398 16.5999 43.6973 16.0192C43.3762 15.2905 43.0163 14.5792 42.6196 13.8886C42.409 13.5324 42.1737 13.1949 41.9321 12.8604C41.7234 12.5614 41.4766 12.2908 41.1981 12.0552C40.65 11.6123 39.9594 11.4358 39.3152 11.8167C39.2842 11.8345 39.2542 11.8542 39.2254 11.8756C38.5627 12.3308 38.0981 13.2506 37.7761 13.9567C36.847 15.9573 36.3143 18.0075 35.7878 20.1134C35.6887 20.5191 35.5896 20.9248 35.4967 21.3335L33.0347 29.3855L29.5631 37.041C28.3203 38.6449 26.7296 39.946 24.9111 40.8462C23.0927 41.7462 21.0936 42.2222 19.0646 42.2377C10.6317 42.4173 6.63047 34.8051 6.63047 34.8051C1.82718 26.9266 0.411889 16.5333 0.0743256 13.2103C0.00309666 12.5197 4.03511e-07 12.1078 4.03511e-07 12.1078C-0.000390705 11.067 0.283541 10.0458 0.821143 9.15454C1.35875 8.26324 2.12959 7.53575 3.05046 7.05059C4.00262 6.56812 5.0622 6.33681 6.1288 6.37856C7.12112 6.42006 8.08661 6.71312 8.93461 7.23021C9.59354 7.6246 10.1631 8.15197 10.6069 8.77866C11.3997 9.90594 11.5793 11.3088 11.7373 12.6498C12.0652 15.5906 12.6402 18.4985 13.4561 21.3428Z" fill="url(#paint14_radial)"/>
<path d="M13.4561 21.3428C14.105 23.6241 14.9893 25.8316 16.0946 27.93C16.5994 28.859 17.1042 29.7881 18.0209 30.3734C18.1798 30.4732 18.3548 30.5445 18.5381 30.584C19.8884 30.872 20.6285 29.785 21.1055 28.7909C21.8172 27.2312 22.3922 25.6127 22.8243 23.9535C22.9079 23.6438 22.9884 23.3341 23.0689 23.0245C23.2237 22.4329 23.3786 21.8352 23.5117 21.2375L29.4702 5.31941C30.7079 3.67099 32.3125 2.33338 34.1567 1.41258C36.0009 0.491786 38.0343 0.0130853 40.0956 0.0144077C43.064 -0.00386678 45.95 0.990187 48.2777 2.8326C52.1736 5.78085 54.4932 11.5876 54.4932 11.5876C54.8314 12.3436 55.0054 13.1626 55.0042 13.9908C55.0026 14.7578 54.8499 15.517 54.5548 16.225C54.26 16.933 53.8283 17.576 53.2848 18.1172C52.7413 18.6584 52.0965 19.0873 51.3873 19.3793C50.6781 19.6713 49.9181 19.8208 49.151 19.8192C48.2981 19.8186 47.4554 19.6305 46.6834 19.2682C45.911 18.9059 45.2278 18.3782 44.6822 17.7225L44.6264 17.6544C44.252 17.1489 43.9398 16.5999 43.6973 16.0192C43.3762 15.2905 43.0163 14.5792 42.6196 13.8886C42.409 13.5324 42.1737 13.1949 41.9321 12.8604C41.7234 12.5614 41.4766 12.2908 41.1981 12.0552C40.65 11.6123 39.9594 11.4358 39.3152 11.8167C39.2842 11.8345 39.2542 11.8542 39.2254 11.8756C38.5627 12.3308 38.0981 13.2506 37.7761 13.9567C36.847 15.9573 36.3143 18.0075 35.7878 20.1134C35.6887 20.5191 35.5896 20.9248 35.4967 21.3335L33.0347 29.3855L29.5631 37.041C28.3203 38.6449 26.7296 39.946 24.9111 40.8462C23.0927 41.7462 21.0936 42.2222 19.0646 42.2377C10.6317 42.4173 6.63047 34.8051 6.63047 34.8051C1.82718 26.9266 0.411889 16.5333 0.0743256 13.2103C0.00309666 12.5197 4.03511e-07 12.1078 4.03511e-07 12.1078C-0.000390705 11.067 0.283541 10.0458 0.821143 9.15454C1.35875 8.26324 2.12959 7.53575 3.05046 7.05059C4.00262 6.56812 5.0622 6.33681 6.1288 6.37856C7.12112 6.42006 8.08661 6.71312 8.93461 7.23021C9.59354 7.6246 10.1631 8.15197 10.6069 8.77866C11.3997 9.90594 11.5793 11.3088 11.7373 12.6498C12.0652 15.5906 12.6402 18.4985 13.4561 21.3428Z" fill="url(#paint15_radial)"/>
<path d="M13.4561 21.3428C14.105 23.6241 14.9893 25.8316 16.0946 27.93C16.5994 28.859 17.1042 29.7881 18.0209 30.3734C18.1798 30.4732 18.3548 30.5445 18.5381 30.584C19.8884 30.872 20.6285 29.785 21.1055 28.7909C21.8172 27.2312 22.3922 25.6127 22.8243 23.9535C22.9079 23.6438 22.9884 23.3341 23.0689 23.0245C23.2237 22.4329 23.3786 21.8352 23.5117 21.2375L29.4702 5.31941C30.7079 3.67099 32.3125 2.33338 34.1567 1.41258C36.0009 0.491786 38.0343 0.0130853 40.0956 0.0144077C43.064 -0.00386678 45.95 0.990187 48.2777 2.8326C52.1736 5.78085 54.4932 11.5876 54.4932 11.5876C54.8314 12.3436 55.0054 13.1626 55.0042 13.9908C55.0026 14.7578 54.8499 15.517 54.5548 16.225C54.26 16.933 53.8283 17.576 53.2848 18.1172C52.7413 18.6584 52.0965 19.0873 51.3873 19.3793C50.6781 19.6713 49.9181 19.8208 49.151 19.8192C48.2981 19.8186 47.4554 19.6305 46.6834 19.2682C45.911 18.9059 45.2278 18.3782 44.6822 17.7225L44.6264 17.6544C44.252 17.1489 43.9398 16.5999 43.6973 16.0192C43.3762 15.2905 43.0163 14.5792 42.6196 13.8886C42.409 13.5324 42.1737 13.1949 41.9321 12.8604C41.7234 12.5614 41.4766 12.2908 41.1981 12.0552C40.65 11.6123 39.9594 11.4358 39.3152 11.8167C39.2842 11.8345 39.2542 11.8542 39.2254 11.8756C38.5627 12.3308 38.0981 13.2506 37.7761 13.9567C36.847 15.9573 36.3143 18.0075 35.7878 20.1134C35.6887 20.5191 35.5896 20.9248 35.4967 21.3335L33.0347 29.3855L29.5631 37.041C28.3203 38.6449 26.7296 39.946 24.9111 40.8462C23.0927 41.7462 21.0936 42.2222 19.0646 42.2377C10.6317 42.4173 6.63047 34.8051 6.63047 34.8051C1.82718 26.9266 0.411889 16.5333 0.0743256 13.2103C0.00309666 12.5197 4.03511e-07 12.1078 4.03511e-07 12.1078C-0.000390705 11.067 0.283541 10.0458 0.821143 9.15454C1.35875 8.26324 2.12959 7.53575 3.05046 7.05059C4.00262 6.56812 5.0622 6.33681 6.1288 6.37856C7.12112 6.42006 8.08661 6.71312 8.93461 7.23021C9.59354 7.6246 10.1631 8.15197 10.6069 8.77866C11.3997 9.90594 11.5793 11.3088 11.7373 12.6498C12.0652 15.5906 12.6402 18.4985 13.4561 21.3428Z" fill="url(#paint16_linear)"/>
<path d="M13.4561 21.3428C14.105 23.6241 14.9893 25.8316 16.0946 27.93C16.5994 28.859 17.1042 29.7881 18.0209 30.3734C18.1798 30.4732 18.3548 30.5445 18.5381 30.584C19.8884 30.872 20.6285 29.785 21.1055 28.7909C21.8172 27.2312 22.3922 25.6127 22.8243 23.9535C22.9079 23.6438 22.9884 23.3341 23.0689 23.0245C23.2237 22.4329 23.3786 21.8352 23.5117 21.2375L29.4702 5.31941C30.7079 3.67099 32.3125 2.33338 34.1567 1.41258C36.0009 0.491786 38.0343 0.0130853 40.0956 0.0144077C43.064 -0.00386678 45.95 0.990187 48.2777 2.8326C52.1736 5.78085 54.4932 11.5876 54.4932 11.5876C54.8314 12.3436 55.0054 13.1626 55.0042 13.9908C55.0026 14.7578 54.8499 15.517 54.5548 16.225C54.26 16.933 53.8283 17.576 53.2848 18.1172C52.7413 18.6584 52.0965 19.0873 51.3873 19.3793C50.6781 19.6713 49.9181 19.8208 49.151 19.8192C48.2981 19.8186 47.4554 19.6305 46.6834 19.2682C45.911 18.9059 45.2278 18.3782 44.6822 17.7225L44.6264 17.6544C44.252 17.1489 43.9398 16.5999 43.6973 16.0192C43.3762 15.2905 43.0163 14.5792 42.6196 13.8886C42.409 13.5324 42.1737 13.1949 41.9321 12.8604C41.7234 12.5614 41.4766 12.2908 41.1981 12.0552C40.65 11.6123 39.9594 11.4358 39.3152 11.8167C39.2842 11.8345 39.2542 11.8542 39.2254 11.8756C38.5627 12.3308 38.0981 13.2506 37.7761 13.9567C36.847 15.9573 36.3143 18.0075 35.7878 20.1134C35.6887 20.5191 35.5896 20.9248 35.4967 21.3335L33.0347 29.3855L29.5631 37.041C28.3203 38.6449 26.7296 39.946 24.9111 40.8462C23.0927 41.7462 21.0936 42.2222 19.0646 42.2377C10.6317 42.4173 6.63047 34.8051 6.63047 34.8051C1.82718 26.9266 0.411889 16.5333 0.0743256 13.2103C0.00309666 12.5197 4.03511e-07 12.1078 4.03511e-07 12.1078C-0.000390705 11.067 0.283541 10.0458 0.821143 9.15454C1.35875 8.26324 2.12959 7.53575 3.05046 7.05059C4.00262 6.56812 5.0622 6.33681 6.1288 6.37856C7.12112 6.42006 8.08661 6.71312 8.93461 7.23021C9.59354 7.6246 10.1631 8.15197 10.6069 8.77866C11.3997 9.90594 11.5793 11.3088 11.7373 12.6498C12.0652 15.5906 12.6402 18.4985 13.4561 21.3428Z" fill="url(#paint17_linear)"/>
<path d="M13.4561 21.3428C14.105 23.6241 14.9893 25.8316 16.0946 27.93C16.5994 28.859 17.1042 29.7881 18.0209 30.3734C18.1798 30.4732 18.3548 30.5445 18.5381 30.584C19.8884 30.872 20.6285 29.785 21.1055 28.7909C21.8172 27.2312 22.3922 25.6127 22.8243 23.9535C22.9079 23.6438 22.9884 23.3341 23.0689 23.0245C23.2237 22.4329 23.3786 21.8352 23.5117 21.2375L29.4702 5.31941C30.7079 3.67099 32.3125 2.33338 34.1567 1.41258C36.0009 0.491786 38.0343 0.0130853 40.0956 0.0144077C43.064 -0.00386678 45.95 0.990187 48.2777 2.8326C52.1736 5.78085 54.4932 11.5876 54.4932 11.5876C54.8314 12.3436 55.0054 13.1626 55.0042 13.9908C55.0026 14.7578 54.8499 15.517 54.5548 16.225C54.26 16.933 53.8283 17.576 53.2848 18.1172C52.7413 18.6584 52.0965 19.0873 51.3873 19.3793C50.6781 19.6713 49.9181 19.8208 49.151 19.8192C48.2981 19.8186 47.4554 19.6305 46.6834 19.2682C45.911 18.9059 45.2278 18.3782 44.6822 17.7225L44.6264 17.6544C44.252 17.1489 43.9398 16.5999 43.6973 16.0192C43.3762 15.2905 43.0163 14.5792 42.6196 13.8886C42.409 13.5324 42.1737 13.1949 41.9321 12.8604C41.7234 12.5614 41.4766 12.2908 41.1981 12.0552C40.65 11.6123 39.9594 11.4358 39.3152 11.8167C39.2842 11.8345 39.2542 11.8542 39.2254 11.8756C38.5627 12.3308 38.0981 13.2506 37.7761 13.9567C36.847 15.9573 36.3143 18.0075 35.7878 20.1134C35.6887 20.5191 35.5896 20.9248 35.4967 21.3335L33.0347 29.3855L29.5631 37.041C28.3203 38.6449 26.7296 39.946 24.9111 40.8462C23.0927 41.7462 21.0936 42.2222 19.0646 42.2377C10.6317 42.4173 6.63047 34.8051 6.63047 34.8051C1.82718 26.9266 0.411889 16.5333 0.0743256 13.2103C0.00309666 12.5197 4.03511e-07 12.1078 4.03511e-07 12.1078C-0.000390705 11.067 0.283541 10.0458 0.821143 9.15454C1.35875 8.26324 2.12959 7.53575 3.05046 7.05059C4.00262 6.56812 5.0622 6.33681 6.1288 6.37856C7.12112 6.42006 8.08661 6.71312 8.93461 7.23021C9.59354 7.6246 10.1631 8.15197 10.6069 8.77866C11.3997 9.90594 11.5793 11.3088 11.7373 12.6498C12.0652 15.5906 12.6402 18.4985 13.4561 21.3428Z" fill="url(#paint18_linear)"/>
<path d="M13.4561 21.3428C14.105 23.6241 14.9893 25.8316 16.0946 27.93C16.5994 28.859 17.1042 29.7881 18.0209 30.3734C18.1798 30.4732 18.3548 30.5445 18.5381 30.584C19.8884 30.872 20.6285 29.785 21.1055 28.7909C21.8172 27.2312 22.3922 25.6127 22.8243 23.9535C22.9079 23.6438 22.9884 23.3341 23.0689 23.0245C23.2237 22.4329 23.3786 21.8352 23.5117 21.2375L29.4702 5.31941C30.7079 3.67099 32.3125 2.33338 34.1567 1.41258C36.0009 0.491786 38.0343 0.0130853 40.0956 0.0144077C43.064 -0.00386678 45.95 0.990187 48.2777 2.8326C52.1736 5.78085 54.4932 11.5876 54.4932 11.5876C54.8314 12.3436 55.0054 13.1626 55.0042 13.9908C55.0026 14.7578 54.8499 15.517 54.5548 16.225C54.26 16.933 53.8283 17.576 53.2848 18.1172C52.7413 18.6584 52.0965 19.0873 51.3873 19.3793C50.6781 19.6713 49.9181 19.8208 49.151 19.8192C48.2981 19.8186 47.4554 19.6305 46.6834 19.2682C45.911 18.9059 45.2278 18.3782 44.6822 17.7225L44.6264 17.6544C44.252 17.1489 43.9398 16.5999 43.6973 16.0192C43.3762 15.2905 43.0163 14.5792 42.6196 13.8886C42.409 13.5324 42.1737 13.1949 41.9321 12.8604C41.7234 12.5614 41.4766 12.2908 41.1981 12.0552C40.65 11.6123 39.9594 11.4358 39.3152 11.8167C39.2842 11.8345 39.2542 11.8542 39.2254 11.8756C38.5627 12.3308 38.0981 13.2506 37.7761 13.9567C36.847 15.9573 36.3143 18.0075 35.7878 20.1134C35.6887 20.5191 35.5896 20.9248 35.4967 21.3335L33.0347 29.3855L29.5631 37.041C28.3203 38.6449 26.7296 39.946 24.9111 40.8462C23.0927 41.7462 21.0936 42.2222 19.0646 42.2377C10.6317 42.4173 6.63047 34.8051 6.63047 34.8051C1.82718 26.9266 0.411889 16.5333 0.0743256 13.2103C0.00309666 12.5197 4.03511e-07 12.1078 4.03511e-07 12.1078C-0.000390705 11.067 0.283541 10.0458 0.821143 9.15454C1.35875 8.26324 2.12959 7.53575 3.05046 7.05059C4.00262 6.56812 5.0622 6.33681 6.1288 6.37856C7.12112 6.42006 8.08661 6.71312 8.93461 7.23021C9.59354 7.6246 10.1631 8.15197 10.6069 8.77866C11.3997 9.90594 11.5793 11.3088 11.7373 12.6498C12.0652 15.5906 12.6402 18.4985 13.4561 21.3428Z" fill="url(#paint19_linear)"/>
<path d="M25.6826 15.4369L29.4701 5.32234C30.7078 3.67392 32.3125 2.33631 34.1567 1.41551C36.0009 0.494715 38.0344 0.016015 40.0957 0.0173374C43.0641 -0.000937104 45.9501 0.993117 48.2777 2.83553C52.1736 5.78378 54.4932 11.5905 54.4932 11.5905C54.8314 12.3465 55.0054 13.1655 55.0042 13.9937C55.0027 14.7607 54.85 15.5199 54.5548 16.2279C54.2597 16.9359 53.8283 17.5789 53.2848 18.1201C52.7413 18.6614 52.0965 19.0902 51.387 19.3822C50.6778 19.6743 49.9181 19.8237 49.151 19.8221C48.2982 19.8215 47.4555 19.6334 46.6834 19.2711C45.9111 18.9088 45.2279 18.3811 44.6822 17.7255L44.6265 17.6573C44.2517 17.1518 43.9399 16.6028 43.6974 16.0222C43.3759 15.2934 43.0164 14.5822 42.6197 13.8915C42.4091 13.5353 42.1737 13.1978 41.9321 12.8633C41.7234 12.5643 41.4766 12.2937 41.1982 12.0581C40.65 11.6153 39.9594 11.4387 39.3153 11.8197C39.2843 11.8375 39.2542 11.8571 39.2254 11.8785C38.5627 12.3337 38.0982 13.2535 37.7761 13.9596C36.847 15.9602 36.3143 18.0104 35.7879 20.1163C35.6888 20.522 35.5897 20.9277 35.4968 21.3365L33.0347 29.3884L25.6826 15.4369Z" fill="url(#paint20_linear)"/>
<path d="M53.1988 6.40336C52.7067 6.40227 52.2168 6.46365 51.7402 6.58607C52.8265 8.15584 53.7488 9.83281 54.4933 11.5907C54.8315 12.3467 55.0055 13.1657 55.0043 13.9939C55.0027 14.7609 54.8501 15.5201 54.5549 16.2281C54.2598 16.9361 53.8284 17.5791 53.2849 18.1203C52.7414 18.6616 52.0966 19.0904 51.3871 19.3824C50.6779 19.6745 49.9182 19.8239 49.1511 19.8223C48.1143 19.8203 47.0966 19.5424 46.2029 19.0171L45.6021 21.2376C44.512 24.8826 43.7439 26.2917 43.7439 26.2917C43.3209 27.28 42.8173 28.2318 42.2388 29.1378C41.8393 29.7293 41.3283 30.3239 40.6284 30.55C40.385 30.6348 40.1249 30.6603 39.8697 30.6243C39.5934 30.5908 39.3268 30.5013 39.0862 30.3611C38.626 30.015 38.2599 29.5593 38.0208 29.0356C37.7248 28.4542 37.459 27.8577 37.2249 27.2487C36.7077 25.9913 35.9087 22.8944 35.9087 22.8944L35.0819 19.6519L34.255 16.3847L33.6666 14.2385C32.1181 8.64862 29.975 5.89856 29.975 5.89856C28.2906 3.49672 25.9042 1.67498 23.1432 0.683365C19.941 -0.465589 16.5809 0.181667 16.5809 0.181667C11.3161 1.21603 8.55058 4.82703 7.3335 6.5644C7.89054 6.70986 8.42358 6.93516 8.91602 7.23333C9.57498 7.62772 10.1445 8.15509 10.5884 8.78179C11.3812 9.90906 11.5608 11.312 11.7187 12.6529C12.051 15.5592 12.6248 18.4328 13.4344 21.2438C15.2182 15.3287 17.3582 12.5724 17.3582 12.5724C17.5973 12.2753 17.8841 12.02 18.2068 11.8168C18.3747 11.7137 18.5626 11.6472 18.758 11.6217C19.1202 11.5868 19.4835 11.6752 19.7893 11.8725C19.8453 11.9094 19.8981 11.9508 19.9472 11.9964C20.2269 12.2444 20.4671 12.5337 20.6595 12.8542C21.105 13.6505 21.4911 14.4786 21.8147 15.3318C22.4836 17.2147 23.0534 19.5157 23.0534 19.5157L24.7567 26.2298C25.9955 30.7946 27.0453 33.012 27.0453 33.012C29.6313 38.9333 33.5861 40.5995 33.5861 40.5995C35.5114 41.6292 37.6526 42.1894 39.8356 42.2346C41.9195 42.2913 43.9864 41.8463 45.8622 40.937C47.9189 39.9256 49.7231 38.4663 51.1424 36.6664C52.0994 35.5577 53.5085 32.8572 53.5085 32.8572C55.0622 29.7612 56.2821 26.5087 57.1474 23.1546C57.7002 21.0649 58.1436 18.9479 58.4759 16.8121C58.6432 15.7529 58.8011 14.6876 58.9281 13.6192C59.0863 12.6075 59.0547 11.5751 58.8352 10.5749C58.789 10.3951 58.7324 10.2183 58.6648 10.0453C58.1672 8.79021 57.2443 7.74996 56.0572 7.10636C55.1774 6.63863 54.1951 6.39704 53.1988 6.40336Z" fill="url(#paint21_linear)"/>
<path d="M53.1988 6.40336C52.7067 6.40227 52.2168 6.46365 51.7402 6.58607C52.8265 8.15584 53.7488 9.83281 54.4933 11.5907C54.8315 12.3467 55.0055 13.1657 55.0043 13.9939C55.0027 14.7609 54.8501 15.5201 54.5549 16.2281C54.2598 16.9361 53.8284 17.5791 53.2849 18.1203C52.7414 18.6616 52.0966 19.0904 51.3871 19.3824C50.6779 19.6745 49.9182 19.8239 49.1511 19.8223C48.1143 19.8203 47.0966 19.5424 46.2029 19.0171L45.6021 21.2376C44.512 24.8826 43.7439 26.2917 43.7439 26.2917C43.3209 27.28 42.8173 28.2318 42.2388 29.1378C41.8393 29.7293 41.3283 30.3239 40.6284 30.55C40.385 30.6348 40.1249 30.6603 39.8697 30.6243C39.5934 30.5908 39.3268 30.5013 39.0862 30.3611C38.626 30.015 38.2599 29.5593 38.0208 29.0356C37.7248 28.4542 37.459 27.8577 37.2249 27.2487C36.7077 25.9913 35.9087 22.8944 35.9087 22.8944L35.0819 19.6519L34.255 16.3847L33.6666 14.2385C32.1181 8.64862 29.975 5.89856 29.975 5.89856C28.2906 3.49672 25.9042 1.67498 23.1432 0.683365C19.941 -0.465589 16.5809 0.181667 16.5809 0.181667C11.3161 1.21603 8.55058 4.82703 7.3335 6.5644C7.89054 6.70986 8.42358 6.93516 8.91602 7.23333C9.57498 7.62772 10.1445 8.15509 10.5884 8.78179C11.3812 9.90906 11.5608 11.312 11.7187 12.6529C12.051 15.5592 12.6248 18.4328 13.4344 21.2438C15.2182 15.3287 17.3582 12.5724 17.3582 12.5724C17.5973 12.2753 17.8841 12.02 18.2068 11.8168C18.3747 11.7137 18.5626 11.6472 18.758 11.6217C19.1202 11.5868 19.4835 11.6752 19.7893 11.8725C19.8453 11.9094 19.8981 11.9508 19.9472 11.9964C20.2269 12.2444 20.4671 12.5337 20.6595 12.8542C21.105 13.6505 21.4911 14.4786 21.8147 15.3318C22.4836 17.2147 23.0534 19.5157 23.0534 19.5157L24.7567 26.2298C25.9955 30.7946 27.0453 33.012 27.0453 33.012C29.6313 38.9333 33.5861 40.5995 33.5861 40.5995C35.5114 41.6292 37.6526 42.1894 39.8356 42.2346C41.9195 42.2913 43.9864 41.8463 45.8622 40.937C47.9189 39.9256 49.7231 38.4663 51.1424 36.6664C52.0994 35.5577 53.5085 32.8572 53.5085 32.8572C55.0622 29.7612 56.2821 26.5087 57.1474 23.1546C57.7002 21.0649 58.1436 18.9479 58.4759 16.8121C58.6432 15.7529 58.8011 14.6876 58.9281 13.6192C59.0863 12.6075 59.0547 11.5751 58.8352 10.5749C58.789 10.3951 58.7324 10.2183 58.6648 10.0453C58.1672 8.79021 57.2443 7.74996 56.0572 7.10636C55.1774 6.63863 54.1951 6.39704 53.1988 6.40336Z" fill="url(#paint22_radial)"/>
<path d="M53.1988 6.40336C52.7067 6.40227 52.2168 6.46365 51.7402 6.58607C52.8265 8.15584 53.7488 9.83281 54.4933 11.5907C54.8315 12.3467 55.0055 13.1657 55.0043 13.9939C55.0027 14.7609 54.8501 15.5201 54.5549 16.2281C54.2598 16.9361 53.8284 17.5791 53.2849 18.1203C52.7414 18.6616 52.0966 19.0904 51.3871 19.3824C50.6779 19.6745 49.9182 19.8239 49.1511 19.8223C48.1143 19.8203 47.0966 19.5424 46.2029 19.0171L45.6021 21.2376C44.512 24.8826 43.7439 26.2917 43.7439 26.2917C43.3209 27.28 42.8173 28.2318 42.2388 29.1378C41.8393 29.7293 41.3283 30.3239 40.6284 30.55C40.385 30.6348 40.1249 30.6603 39.8697 30.6243C39.5934 30.5908 39.3268 30.5013 39.0862 30.3611C38.626 30.015 38.2599 29.5593 38.0208 29.0356C37.7248 28.4542 37.459 27.8577 37.2249 27.2487C36.7077 25.9913 35.9087 22.8944 35.9087 22.8944L35.0819 19.6519L34.255 16.3847L33.6666 14.2385C32.1181 8.64862 29.975 5.89856 29.975 5.89856C28.2906 3.49672 25.9042 1.67498 23.1432 0.683365C19.941 -0.465589 16.5809 0.181667 16.5809 0.181667C11.3161 1.21603 8.55058 4.82703 7.3335 6.5644C7.89054 6.70986 8.42358 6.93516 8.91602 7.23333C9.57498 7.62772 10.1445 8.15509 10.5884 8.78179C11.3812 9.90906 11.5608 11.312 11.7187 12.6529C12.051 15.5592 12.6248 18.4328 13.4344 21.2438C15.2182 15.3287 17.3582 12.5724 17.3582 12.5724C17.5973 12.2753 17.8841 12.02 18.2068 11.8168C18.3747 11.7137 18.5626 11.6472 18.758 11.6217C19.1202 11.5868 19.4835 11.6752 19.7893 11.8725C19.8453 11.9094 19.8981 11.9508 19.9472 11.9964C20.2269 12.2444 20.4671 12.5337 20.6595 12.8542C21.105 13.6505 21.4911 14.4786 21.8147 15.3318C22.4836 17.2147 23.0534 19.5157 23.0534 19.5157L24.7567 26.2298C25.9955 30.7946 27.0453 33.012 27.0453 33.012C29.6313 38.9333 33.5861 40.5995 33.5861 40.5995C35.5114 41.6292 37.6526 42.1894 39.8356 42.2346C41.9195 42.2913 43.9864 41.8463 45.8622 40.937C47.9189 39.9256 49.7231 38.4663 51.1424 36.6664C52.0994 35.5577 53.5085 32.8572 53.5085 32.8572C55.0622 29.7612 56.2821 26.5087 57.1474 23.1546C57.7002 21.0649 58.1436 18.9479 58.4759 16.8121C58.6432 15.7529 58.8011 14.6876 58.9281 13.6192C59.0863 12.6075 59.0547 11.5751 58.8352 10.5749C58.789 10.3951 58.7324 10.2183 58.6648 10.0453C58.1672 8.79021 57.2443 7.74996 56.0572 7.10636C55.1774 6.63863 54.1951 6.39704 53.1988 6.40336Z" fill="url(#paint23_radial)"/>
<path d="M53.1988 6.40336C52.7067 6.40227 52.2168 6.46365 51.7402 6.58607C52.8265 8.15584 53.7488 9.83281 54.4933 11.5907C54.8315 12.3467 55.0055 13.1657 55.0043 13.9939C55.0027 14.7609 54.8501 15.5201 54.5549 16.2281C54.2598 16.9361 53.8284 17.5791 53.2849 18.1203C52.7414 18.6616 52.0966 19.0904 51.3871 19.3824C50.6779 19.6745 49.9182 19.8239 49.1511 19.8223C48.1143 19.8203 47.0966 19.5424 46.2029 19.0171L45.6021 21.2376C44.512 24.8826 43.7439 26.2917 43.7439 26.2917C43.3209 27.28 42.8173 28.2318 42.2388 29.1378C41.8393 29.7293 41.3283 30.3239 40.6284 30.55C40.385 30.6348 40.1249 30.6603 39.8697 30.6243C39.5934 30.5908 39.3268 30.5013 39.0862 30.3611C38.626 30.015 38.2599 29.5593 38.0208 29.0356C37.7248 28.4542 37.459 27.8577 37.2249 27.2487C36.7077 25.9913 35.9087 22.8944 35.9087 22.8944L35.0819 19.6519L34.255 16.3847L33.6666 14.2385C32.1181 8.64862 29.975 5.89856 29.975 5.89856C28.2906 3.49672 25.9042 1.67498 23.1432 0.683365C19.941 -0.465589 16.5809 0.181667 16.5809 0.181667C11.3161 1.21603 8.55058 4.82703 7.3335 6.5644C7.89054 6.70986 8.42358 6.93516 8.91602 7.23333C9.57498 7.62772 10.1445 8.15509 10.5884 8.78179C11.3812 9.90906 11.5608 11.312 11.7187 12.6529C12.051 15.5592 12.6248 18.4328 13.4344 21.2438C15.2182 15.3287 17.3582 12.5724 17.3582 12.5724C17.5973 12.2753 17.8841 12.02 18.2068 11.8168C18.3747 11.7137 18.5626 11.6472 18.758 11.6217C19.1202 11.5868 19.4835 11.6752 19.7893 11.8725C19.8453 11.9094 19.8981 11.9508 19.9472 11.9964C20.2269 12.2444 20.4671 12.5337 20.6595 12.8542C21.105 13.6505 21.4911 14.4786 21.8147 15.3318C22.4836 17.2147 23.0534 19.5157 23.0534 19.5157L24.7567 26.2298C25.9955 30.7946 27.0453 33.012 27.0453 33.012C29.6313 38.9333 33.5861 40.5995 33.5861 40.5995C35.5114 41.6292 37.6526 42.1894 39.8356 42.2346C41.9195 42.2913 43.9864 41.8463 45.8622 40.937C47.9189 39.9256 49.7231 38.4663 51.1424 36.6664C52.0994 35.5577 53.5085 32.8572 53.5085 32.8572C55.0622 29.7612 56.2821 26.5087 57.1474 23.1546C57.7002 21.0649 58.1436 18.9479 58.4759 16.8121C58.6432 15.7529 58.8011 14.6876 58.9281 13.6192C59.0863 12.6075 59.0547 11.5751 58.8352 10.5749C58.789 10.3951 58.7324 10.2183 58.6648 10.0453C58.1672 8.79021 57.2443 7.74996 56.0572 7.10636C55.1774 6.63863 54.1951 6.39704 53.1988 6.40336Z" fill="url(#paint24_radial)"/>
<path d="M53.1988 6.40336C52.7067 6.40227 52.2168 6.46365 51.7402 6.58607C52.8265 8.15584 53.7488 9.83281 54.4933 11.5907C54.8315 12.3467 55.0055 13.1657 55.0043 13.9939C55.0027 14.7609 54.8501 15.5201 54.5549 16.2281C54.2598 16.9361 53.8284 17.5791 53.2849 18.1203C52.7414 18.6616 52.0966 19.0904 51.3871 19.3824C50.6779 19.6745 49.9182 19.8239 49.1511 19.8223C48.1143 19.8203 47.0966 19.5424 46.2029 19.0171L45.6021 21.2376C44.512 24.8826 43.7439 26.2917 43.7439 26.2917C43.3209 27.28 42.8173 28.2318 42.2388 29.1378C41.8393 29.7293 41.3283 30.3239 40.6284 30.55C40.385 30.6348 40.1249 30.6603 39.8697 30.6243C39.5934 30.5908 39.3268 30.5013 39.0862 30.3611C38.626 30.015 38.2599 29.5593 38.0208 29.0356C37.7248 28.4542 37.459 27.8577 37.2249 27.2487C36.7077 25.9913 35.9087 22.8944 35.9087 22.8944L35.0819 19.6519L34.255 16.3847L33.6666 14.2385C32.1181 8.64862 29.975 5.89856 29.975 5.89856C28.2906 3.49672 25.9042 1.67498 23.1432 0.683365C19.941 -0.465589 16.5809 0.181667 16.5809 0.181667C11.3161 1.21603 8.55058 4.82703 7.3335 6.5644C7.89054 6.70986 8.42358 6.93516 8.91602 7.23333C9.57498 7.62772 10.1445 8.15509 10.5884 8.78179C11.3812 9.90906 11.5608 11.312 11.7187 12.6529C12.051 15.5592 12.6248 18.4328 13.4344 21.2438C15.2182 15.3287 17.3582 12.5724 17.3582 12.5724C17.5973 12.2753 17.8841 12.02 18.2068 11.8168C18.3747 11.7137 18.5626 11.6472 18.758 11.6217C19.1202 11.5868 19.4835 11.6752 19.7893 11.8725C19.8453 11.9094 19.8981 11.9508 19.9472 11.9964C20.2269 12.2444 20.4671 12.5337 20.6595 12.8542C21.105 13.6505 21.4911 14.4786 21.8147 15.3318C22.4836 17.2147 23.0534 19.5157 23.0534 19.5157L24.7567 26.2298C25.9955 30.7946 27.0453 33.012 27.0453 33.012C29.6313 38.9333 33.5861 40.5995 33.5861 40.5995C35.5114 41.6292 37.6526 42.1894 39.8356 42.2346C41.9195 42.2913 43.9864 41.8463 45.8622 40.937C47.9189 39.9256 49.7231 38.4663 51.1424 36.6664C52.0994 35.5577 53.5085 32.8572 53.5085 32.8572C55.0622 29.7612 56.2821 26.5087 57.1474 23.1546C57.7002 21.0649 58.1436 18.9479 58.4759 16.8121C58.6432 15.7529 58.8011 14.6876 58.9281 13.6192C59.0863 12.6075 59.0547 11.5751 58.8352 10.5749C58.789 10.3951 58.7324 10.2183 58.6648 10.0453C58.1672 8.79021 57.2443 7.74996 56.0572 7.10636C55.1774 6.63863 54.1951 6.39704 53.1988 6.40336Z" fill="url(#paint25_radial)"/>
<path d="M53.1988 6.40336C52.7067 6.40227 52.2168 6.46365 51.7402 6.58607C52.8265 8.15584 53.7488 9.83281 54.4933 11.5907C54.8315 12.3467 55.0055 13.1657 55.0043 13.9939C55.0027 14.7609 54.8501 15.5201 54.5549 16.2281C54.2598 16.9361 53.8284 17.5791 53.2849 18.1203C52.7414 18.6616 52.0966 19.0904 51.3871 19.3824C50.6779 19.6745 49.9182 19.8239 49.1511 19.8223C48.1143 19.8203 47.0966 19.5424 46.2029 19.0171L45.6021 21.2376C44.512 24.8826 43.7439 26.2917 43.7439 26.2917C43.3209 27.28 42.8173 28.2318 42.2388 29.1378C41.8393 29.7293 41.3283 30.3239 40.6284 30.55C40.385 30.6348 40.1249 30.6603 39.8697 30.6243C39.5934 30.5908 39.3268 30.5013 39.0862 30.3611C38.626 30.015 38.2599 29.5593 38.0208 29.0356C37.7248 28.4542 37.459 27.8577 37.2249 27.2487C36.7077 25.9913 35.9087 22.8944 35.9087 22.8944L35.0819 19.6519L34.255 16.3847L33.6666 14.2385C32.1181 8.64862 29.975 5.89856 29.975 5.89856C28.2906 3.49672 25.9042 1.67498 23.1432 0.683365C19.941 -0.465589 16.5809 0.181667 16.5809 0.181667C11.3161 1.21603 8.55058 4.82703 7.3335 6.5644C7.89054 6.70986 8.42358 6.93516 8.91602 7.23333C9.57498 7.62772 10.1445 8.15509 10.5884 8.78179C11.3812 9.90906 11.5608 11.312 11.7187 12.6529C12.051 15.5592 12.6248 18.4328 13.4344 21.2438C15.2182 15.3287 17.3582 12.5724 17.3582 12.5724C17.5973 12.2753 17.8841 12.02 18.2068 11.8168C18.3747 11.7137 18.5626 11.6472 18.758 11.6217C19.1202 11.5868 19.4835 11.6752 19.7893 11.8725C19.8453 11.9094 19.8981 11.9508 19.9472 11.9964C20.2269 12.2444 20.4671 12.5337 20.6595 12.8542C21.105 13.6505 21.4911 14.4786 21.8147 15.3318C22.4836 17.2147 23.0534 19.5157 23.0534 19.5157L24.7567 26.2298C25.9955 30.7946 27.0453 33.012 27.0453 33.012C29.6313 38.9333 33.5861 40.5995 33.5861 40.5995C35.5114 41.6292 37.6526 42.1894 39.8356 42.2346C41.9195 42.2913 43.9864 41.8463 45.8622 40.937C47.9189 39.9256 49.7231 38.4663 51.1424 36.6664C52.0994 35.5577 53.5085 32.8572 53.5085 32.8572C55.0622 29.7612 56.2821 26.5087 57.1474 23.1546C57.7002 21.0649 58.1436 18.9479 58.4759 16.8121C58.6432 15.7529 58.8011 14.6876 58.9281 13.6192C59.0863 12.6075 59.0547 11.5751 58.8352 10.5749C58.789 10.3951 58.7324 10.2183 58.6648 10.0453C58.1672 8.79021 57.2443 7.74996 56.0572 7.10636C55.1774 6.63863 54.1951 6.39704 53.1988 6.40336Z" fill="url(#paint26_radial)"/>
<path d="M53.1988 6.40336C52.7067 6.40227 52.2168 6.46365 51.7402 6.58607C52.8265 8.15584 53.7488 9.83281 54.4933 11.5907C54.8315 12.3467 55.0055 13.1657 55.0043 13.9939C55.0027 14.7609 54.8501 15.5201 54.5549 16.2281C54.2598 16.9361 53.8284 17.5791 53.2849 18.1203C52.7414 18.6616 52.0966 19.0904 51.3871 19.3824C50.6779 19.6745 49.9182 19.8239 49.1511 19.8223C48.1143 19.8203 47.0966 19.5424 46.2029 19.0171L45.6021 21.2376C44.512 24.8826 43.7439 26.2917 43.7439 26.2917C43.3209 27.28 42.8173 28.2318 42.2388 29.1378C41.8393 29.7293 41.3283 30.3239 40.6284 30.55C40.385 30.6348 40.1249 30.6603 39.8697 30.6243C39.5934 30.5908 39.3268 30.5013 39.0862 30.3611C38.626 30.015 38.2599 29.5593 38.0208 29.0356C37.7248 28.4542 37.459 27.8577 37.2249 27.2487C36.7077 25.9913 35.9087 22.8944 35.9087 22.8944L35.0819 19.6519L34.255 16.3847L33.6666 14.2385C32.1181 8.64862 29.975 5.89856 29.975 5.89856C28.2906 3.49672 25.9042 1.67498 23.1432 0.683365C19.941 -0.465589 16.5809 0.181667 16.5809 0.181667C11.3161 1.21603 8.55058 4.82703 7.3335 6.5644C7.89054 6.70986 8.42358 6.93516 8.91602 7.23333C9.57498 7.62772 10.1445 8.15509 10.5884 8.78179C11.3812 9.90906 11.5608 11.312 11.7187 12.6529C12.051 15.5592 12.6248 18.4328 13.4344 21.2438C15.2182 15.3287 17.3582 12.5724 17.3582 12.5724C17.5973 12.2753 17.8841 12.02 18.2068 11.8168C18.3747 11.7137 18.5626 11.6472 18.758 11.6217C19.1202 11.5868 19.4835 11.6752 19.7893 11.8725C19.8453 11.9094 19.8981 11.9508 19.9472 11.9964C20.2269 12.2444 20.4671 12.5337 20.6595 12.8542C21.105 13.6505 21.4911 14.4786 21.8147 15.3318C22.4836 17.2147 23.0534 19.5157 23.0534 19.5157L24.7567 26.2298C25.9955 30.7946 27.0453 33.012 27.0453 33.012C29.6313 38.9333 33.5861 40.5995 33.5861 40.5995C35.5114 41.6292 37.6526 42.1894 39.8356 42.2346C41.9195 42.2913 43.9864 41.8463 45.8622 40.937C47.9189 39.9256 49.7231 38.4663 51.1424 36.6664C52.0994 35.5577 53.5085 32.8572 53.5085 32.8572C55.0622 29.7612 56.2821 26.5087 57.1474 23.1546C57.7002 21.0649 58.1436 18.9479 58.4759 16.8121C58.6432 15.7529 58.8011 14.6876 58.9281 13.6192C59.0863 12.6075 59.0547 11.5751 58.8352 10.5749C58.789 10.3951 58.7324 10.2183 58.6648 10.0453C58.1672 8.79021 57.2443 7.74996 56.0572 7.10636C55.1774 6.63863 54.1951 6.39704 53.1988 6.40336Z" fill="url(#paint27_radial)"/>
<path d="M53.1988 6.40336C52.7067 6.40227 52.2168 6.46365 51.7402 6.58607C52.8265 8.15584 53.7488 9.83281 54.4933 11.5907C54.8315 12.3467 55.0055 13.1657 55.0043 13.9939C55.0027 14.7609 54.8501 15.5201 54.5549 16.2281C54.2598 16.9361 53.8284 17.5791 53.2849 18.1203C52.7414 18.6616 52.0966 19.0904 51.3871 19.3824C50.6779 19.6745 49.9182 19.8239 49.1511 19.8223C48.1143 19.8203 47.0966 19.5424 46.2029 19.0171L45.6021 21.2376C44.512 24.8826 43.7439 26.2917 43.7439 26.2917C43.3209 27.28 42.8173 28.2318 42.2388 29.1378C41.8393 29.7293 41.3283 30.3239 40.6284 30.55C40.385 30.6348 40.1249 30.6603 39.8697 30.6243C39.5934 30.5908 39.3268 30.5013 39.0862 30.3611C38.626 30.015 38.2599 29.5593 38.0208 29.0356C37.7248 28.4542 37.459 27.8577 37.2249 27.2487C36.7077 25.9913 35.9087 22.8944 35.9087 22.8944L35.0819 19.6519L34.255 16.3847L33.6666 14.2385C32.1181 8.64862 29.975 5.89856 29.975 5.89856C28.2906 3.49672 25.9042 1.67498 23.1432 0.683365C19.941 -0.465589 16.5809 0.181667 16.5809 0.181667C11.3161 1.21603 8.55058 4.82703 7.3335 6.5644C7.89054 6.70986 8.42358 6.93516 8.91602 7.23333C9.57498 7.62772 10.1445 8.15509 10.5884 8.78179C11.3812 9.90906 11.5608 11.312 11.7187 12.6529C12.051 15.5592 12.6248 18.4328 13.4344 21.2438C15.2182 15.3287 17.3582 12.5724 17.3582 12.5724C17.5973 12.2753 17.8841 12.02 18.2068 11.8168C18.3747 11.7137 18.5626 11.6472 18.758 11.6217C19.1202 11.5868 19.4835 11.6752 19.7893 11.8725C19.8453 11.9094 19.8981 11.9508 19.9472 11.9964C20.2269 12.2444 20.4671 12.5337 20.6595 12.8542C21.105 13.6505 21.4911 14.4786 21.8147 15.3318C22.4836 17.2147 23.0534 19.5157 23.0534 19.5157L24.7567 26.2298C25.9955 30.7946 27.0453 33.012 27.0453 33.012C29.6313 38.9333 33.5861 40.5995 33.5861 40.5995C35.5114 41.6292 37.6526 42.1894 39.8356 42.2346C41.9195 42.2913 43.9864 41.8463 45.8622 40.937C47.9189 39.9256 49.7231 38.4663 51.1424 36.6664C52.0994 35.5577 53.5085 32.8572 53.5085 32.8572C55.0622 29.7612 56.2821 26.5087 57.1474 23.1546C57.7002 21.0649 58.1436 18.9479 58.4759 16.8121C58.6432 15.7529 58.8011 14.6876 58.9281 13.6192C59.0863 12.6075 59.0547 11.5751 58.8352 10.5749C58.789 10.3951 58.7324 10.2183 58.6648 10.0453C58.1672 8.79021 57.2443 7.74996 56.0572 7.10636C55.1774 6.63863 54.1951 6.39704 53.1988 6.40336Z" fill="url(#paint28_radial)"/>
<path d="M53.1988 6.40336C52.7067 6.40227 52.2168 6.46365 51.7402 6.58607C52.8265 8.15584 53.7488 9.83281 54.4933 11.5907C54.8315 12.3467 55.0055 13.1657 55.0043 13.9939C55.0027 14.7609 54.8501 15.5201 54.5549 16.2281C54.2598 16.9361 53.8284 17.5791 53.2849 18.1203C52.7414 18.6616 52.0966 19.0904 51.3871 19.3824C50.6779 19.6745 49.9182 19.8239 49.1511 19.8223C48.1143 19.8203 47.0966 19.5424 46.2029 19.0171L45.6021 21.2376C44.512 24.8826 43.7439 26.2917 43.7439 26.2917C43.3209 27.28 42.8173 28.2318 42.2388 29.1378C41.8393 29.7293 41.3283 30.3239 40.6284 30.55C40.385 30.6348 40.1249 30.6603 39.8697 30.6243C39.5934 30.5908 39.3268 30.5013 39.0862 30.3611C38.626 30.015 38.2599 29.5593 38.0208 29.0356C37.7248 28.4542 37.459 27.8577 37.2249 27.2487C36.7077 25.9913 35.9087 22.8944 35.9087 22.8944L35.0819 19.6519L34.255 16.3847L33.6666 14.2385C32.1181 8.64862 29.975 5.89856 29.975 5.89856C28.2906 3.49672 25.9042 1.67498 23.1432 0.683365C19.941 -0.465589 16.5809 0.181667 16.5809 0.181667C11.3161 1.21603 8.55058 4.82703 7.3335 6.5644C7.89054 6.70986 8.42358 6.93516 8.91602 7.23333C9.57498 7.62772 10.1445 8.15509 10.5884 8.78179C11.3812 9.90906 11.5608 11.312 11.7187 12.6529C12.051 15.5592 12.6248 18.4328 13.4344 21.2438C15.2182 15.3287 17.3582 12.5724 17.3582 12.5724C17.5973 12.2753 17.8841 12.02 18.2068 11.8168C18.3747 11.7137 18.5626 11.6472 18.758 11.6217C19.1202 11.5868 19.4835 11.6752 19.7893 11.8725C19.8453 11.9094 19.8981 11.9508 19.9472 11.9964C20.2269 12.2444 20.4671 12.5337 20.6595 12.8542C21.105 13.6505 21.4911 14.4786 21.8147 15.3318C22.4836 17.2147 23.0534 19.5157 23.0534 19.5157L24.7567 26.2298C25.9955 30.7946 27.0453 33.012 27.0453 33.012C29.6313 38.9333 33.5861 40.5995 33.5861 40.5995C35.5114 41.6292 37.6526 42.1894 39.8356 42.2346C41.9195 42.2913 43.9864 41.8463 45.8622 40.937C47.9189 39.9256 49.7231 38.4663 51.1424 36.6664C52.0994 35.5577 53.5085 32.8572 53.5085 32.8572C55.0622 29.7612 56.2821 26.5087 57.1474 23.1546C57.7002 21.0649 58.1436 18.9479 58.4759 16.8121C58.6432 15.7529 58.8011 14.6876 58.9281 13.6192C59.0863 12.6075 59.0547 11.5751 58.8352 10.5749C58.789 10.3951 58.7324 10.2183 58.6648 10.0453C58.1672 8.79021 57.2443 7.74996 56.0572 7.10636C55.1774 6.63863 54.1951 6.39704 53.1988 6.40336Z" fill="url(#paint29_radial)"/>
<path d="M53.1988 6.40336C52.7067 6.40227 52.2168 6.46365 51.7402 6.58607C52.8265 8.15584 53.7488 9.83281 54.4933 11.5907C54.8315 12.3467 55.0055 13.1657 55.0043 13.9939C55.0027 14.7609 54.8501 15.5201 54.5549 16.2281C54.2598 16.9361 53.8284 17.5791 53.2849 18.1203C52.7414 18.6616 52.0966 19.0904 51.3871 19.3824C50.6779 19.6745 49.9182 19.8239 49.1511 19.8223C48.1143 19.8203 47.0966 19.5424 46.2029 19.0171L45.6021 21.2376C44.512 24.8826 43.7439 26.2917 43.7439 26.2917C43.3209 27.28 42.8173 28.2318 42.2388 29.1378C41.8393 29.7293 41.3283 30.3239 40.6284 30.55C40.385 30.6348 40.1249 30.6603 39.8697 30.6243C39.5934 30.5908 39.3268 30.5013 39.0862 30.3611C38.626 30.015 38.2599 29.5593 38.0208 29.0356C37.7248 28.4542 37.459 27.8577 37.2249 27.2487C36.7077 25.9913 35.9087 22.8944 35.9087 22.8944L35.0819 19.6519L34.255 16.3847L33.6666 14.2385C32.1181 8.64862 29.975 5.89856 29.975 5.89856C28.2906 3.49672 25.9042 1.67498 23.1432 0.683365C19.941 -0.465589 16.5809 0.181667 16.5809 0.181667C11.3161 1.21603 8.55058 4.82703 7.3335 6.5644C7.89054 6.70986 8.42358 6.93516 8.91602 7.23333C9.57498 7.62772 10.1445 8.15509 10.5884 8.78179C11.3812 9.90906 11.5608 11.312 11.7187 12.6529C12.051 15.5592 12.6248 18.4328 13.4344 21.2438C15.2182 15.3287 17.3582 12.5724 17.3582 12.5724C17.5973 12.2753 17.8841 12.02 18.2068 11.8168C18.3747 11.7137 18.5626 11.6472 18.758 11.6217C19.1202 11.5868 19.4835 11.6752 19.7893 11.8725C19.8453 11.9094 19.8981 11.9508 19.9472 11.9964C20.2269 12.2444 20.4671 12.5337 20.6595 12.8542C21.105 13.6505 21.4911 14.4786 21.8147 15.3318C22.4836 17.2147 23.0534 19.5157 23.0534 19.5157L24.7567 26.2298C25.9955 30.7946 27.0453 33.012 27.0453 33.012C29.6313 38.9333 33.5861 40.5995 33.5861 40.5995C35.5114 41.6292 37.6526 42.1894 39.8356 42.2346C41.9195 42.2913 43.9864 41.8463 45.8622 40.937C47.9189 39.9256 49.7231 38.4663 51.1424 36.6664C52.0994 35.5577 53.5085 32.8572 53.5085 32.8572C55.0622 29.7612 56.2821 26.5087 57.1474 23.1546C57.7002 21.0649 58.1436 18.9479 58.4759 16.8121C58.6432 15.7529 58.8011 14.6876 58.9281 13.6192C59.0863 12.6075 59.0547 11.5751 58.8352 10.5749C58.789 10.3951 58.7324 10.2183 58.6648 10.0453C58.1672 8.79021 57.2443 7.74996 56.0572 7.10636C55.1774 6.63863 54.1951 6.39704 53.1988 6.40336Z" fill="url(#paint30_radial)"/>
<path d="M53.1988 6.40336C52.7067 6.40227 52.2168 6.46365 51.7402 6.58607C52.8265 8.15584 53.7488 9.83281 54.4933 11.5907C54.8315 12.3467 55.0055 13.1657 55.0043 13.9939C55.0027 14.7609 54.8501 15.5201 54.5549 16.2281C54.2598 16.9361 53.8284 17.5791 53.2849 18.1203C52.7414 18.6616 52.0966 19.0904 51.3871 19.3824C50.6779 19.6745 49.9182 19.8239 49.1511 19.8223C48.1143 19.8203 47.0966 19.5424 46.2029 19.0171L45.6021 21.2376C44.512 24.8826 43.7439 26.2917 43.7439 26.2917C43.3209 27.28 42.8173 28.2318 42.2388 29.1378C41.8393 29.7293 41.3283 30.3239 40.6284 30.55C40.385 30.6348 40.1249 30.6603 39.8697 30.6243C39.5934 30.5908 39.3268 30.5013 39.0862 30.3611C38.626 30.015 38.2599 29.5593 38.0208 29.0356C37.7248 28.4542 37.459 27.8577 37.2249 27.2487C36.7077 25.9913 35.9087 22.8944 35.9087 22.8944L35.0819 19.6519L34.255 16.3847L33.6666 14.2385C32.1181 8.64862 29.975 5.89856 29.975 5.89856C28.2906 3.49672 25.9042 1.67498 23.1432 0.683365C19.941 -0.465589 16.5809 0.181667 16.5809 0.181667C11.3161 1.21603 8.55058 4.82703 7.3335 6.5644C7.89054 6.70986 8.42358 6.93516 8.91602 7.23333C9.57498 7.62772 10.1445 8.15509 10.5884 8.78179C11.3812 9.90906 11.5608 11.312 11.7187 12.6529C12.051 15.5592 12.6248 18.4328 13.4344 21.2438C15.2182 15.3287 17.3582 12.5724 17.3582 12.5724C17.5973 12.2753 17.8841 12.02 18.2068 11.8168C18.3747 11.7137 18.5626 11.6472 18.758 11.6217C19.1202 11.5868 19.4835 11.6752 19.7893 11.8725C19.8453 11.9094 19.8981 11.9508 19.9472 11.9964C20.2269 12.2444 20.4671 12.5337 20.6595 12.8542C21.105 13.6505 21.4911 14.4786 21.8147 15.3318C22.4836 17.2147 23.0534 19.5157 23.0534 19.5157L24.7567 26.2298C25.9955 30.7946 27.0453 33.012 27.0453 33.012C29.6313 38.9333 33.5861 40.5995 33.5861 40.5995C35.5114 41.6292 37.6526 42.1894 39.8356 42.2346C41.9195 42.2913 43.9864 41.8463 45.8622 40.937C47.9189 39.9256 49.7231 38.4663 51.1424 36.6664C52.0994 35.5577 53.5085 32.8572 53.5085 32.8572C55.0622 29.7612 56.2821 26.5087 57.1474 23.1546C57.7002 21.0649 58.1436 18.9479 58.4759 16.8121C58.6432 15.7529 58.8011 14.6876 58.9281 13.6192C59.0863 12.6075 59.0547 11.5751 58.8352 10.5749C58.789 10.3951 58.7324 10.2183 58.6648 10.0453C58.1672 8.79021 57.2443 7.74996 56.0572 7.10636C55.1774 6.63863 54.1951 6.39704 53.1988 6.40336Z" fill="url(#paint31_radial)"/>
<path d="M53.1988 6.40336C52.7067 6.40227 52.2168 6.46365 51.7402 6.58607C52.8265 8.15584 53.7488 9.83281 54.4933 11.5907C54.8315 12.3467 55.0055 13.1657 55.0043 13.9939C55.0027 14.7609 54.8501 15.5201 54.5549 16.2281C54.2598 16.9361 53.8284 17.5791 53.2849 18.1203C52.7414 18.6616 52.0966 19.0904 51.3871 19.3824C50.6779 19.6745 49.9182 19.8239 49.1511 19.8223C48.1143 19.8203 47.0966 19.5424 46.2029 19.0171L45.6021 21.2376C44.512 24.8826 43.7439 26.2917 43.7439 26.2917C43.3209 27.28 42.8173 28.2318 42.2388 29.1378C41.8393 29.7293 41.3283 30.3239 40.6284 30.55C40.385 30.6348 40.1249 30.6603 39.8697 30.6243C39.5934 30.5908 39.3268 30.5013 39.0862 30.3611C38.626 30.015 38.2599 29.5593 38.0208 29.0356C37.7248 28.4542 37.459 27.8577 37.2249 27.2487C36.7077 25.9913 35.9087 22.8944 35.9087 22.8944L35.0819 19.6519L34.255 16.3847L33.6666 14.2385C32.1181 8.64862 29.975 5.89856 29.975 5.89856C28.2906 3.49672 25.9042 1.67498 23.1432 0.683365C19.941 -0.465589 16.5809 0.181667 16.5809 0.181667C11.3161 1.21603 8.55058 4.82703 7.3335 6.5644C7.89054 6.70986 8.42358 6.93516 8.91602 7.23333C9.57498 7.62772 10.1445 8.15509 10.5884 8.78179C11.3812 9.90906 11.5608 11.312 11.7187 12.6529C12.051 15.5592 12.6248 18.4328 13.4344 21.2438C15.2182 15.3287 17.3582 12.5724 17.3582 12.5724C17.5973 12.2753 17.8841 12.02 18.2068 11.8168C18.3747 11.7137 18.5626 11.6472 18.758 11.6217C19.1202 11.5868 19.4835 11.6752 19.7893 11.8725C19.8453 11.9094 19.8981 11.9508 19.9472 11.9964C20.2269 12.2444 20.4671 12.5337 20.6595 12.8542C21.105 13.6505 21.4911 14.4786 21.8147 15.3318C22.4836 17.2147 23.0534 19.5157 23.0534 19.5157L24.7567 26.2298C25.9955 30.7946 27.0453 33.012 27.0453 33.012C29.6313 38.9333 33.5861 40.5995 33.5861 40.5995C35.5114 41.6292 37.6526 42.1894 39.8356 42.2346C41.9195 42.2913 43.9864 41.8463 45.8622 40.937C47.9189 39.9256 49.7231 38.4663 51.1424 36.6664C52.0994 35.5577 53.5085 32.8572 53.5085 32.8572C55.0622 29.7612 56.2821 26.5087 57.1474 23.1546C57.7002 21.0649 58.1436 18.9479 58.4759 16.8121C58.6432 15.7529 58.8011 14.6876 58.9281 13.6192C59.0863 12.6075 59.0547 11.5751 58.8352 10.5749C58.789 10.3951 58.7324 10.2183 58.6648 10.0453C58.1672 8.79021 57.2443 7.74996 56.0572 7.10636C55.1774 6.63863 54.1951 6.39704 53.1988 6.40336Z" fill="url(#paint32_radial)"/>
<path d="M53.1988 6.40336C52.7067 6.40227 52.2168 6.46365 51.7402 6.58607C52.8265 8.15584 53.7488 9.83281 54.4933 11.5907C54.8315 12.3467 55.0055 13.1657 55.0043 13.9939C55.0027 14.7609 54.8501 15.5201 54.5549 16.2281C54.2598 16.9361 53.8284 17.5791 53.2849 18.1203C52.7414 18.6616 52.0966 19.0904 51.3871 19.3824C50.6779 19.6745 49.9182 19.8239 49.1511 19.8223C48.1143 19.8203 47.0966 19.5424 46.2029 19.0171L45.6021 21.2376C44.512 24.8826 43.7439 26.2917 43.7439 26.2917C43.3209 27.28 42.8173 28.2318 42.2388 29.1378C41.8393 29.7293 41.3283 30.3239 40.6284 30.55C40.385 30.6348 40.1249 30.6603 39.8697 30.6243C39.5934 30.5908 39.3268 30.5013 39.0862 30.3611C38.626 30.015 38.2599 29.5593 38.0208 29.0356C37.7248 28.4542 37.459 27.8577 37.2249 27.2487C36.7077 25.9913 35.9087 22.8944 35.9087 22.8944L35.0819 19.6519L34.255 16.3847L33.6666 14.2385C32.1181 8.64862 29.975 5.89856 29.975 5.89856C28.2906 3.49672 25.9042 1.67498 23.1432 0.683365C19.941 -0.465589 16.5809 0.181667 16.5809 0.181667C11.3161 1.21603 8.55058 4.82703 7.3335 6.5644C7.89054 6.70986 8.42358 6.93516 8.91602 7.23333C9.57498 7.62772 10.1445 8.15509 10.5884 8.78179C11.3812 9.90906 11.5608 11.312 11.7187 12.6529C12.051 15.5592 12.6248 18.4328 13.4344 21.2438C15.2182 15.3287 17.3582 12.5724 17.3582 12.5724C17.5973 12.2753 17.8841 12.02 18.2068 11.8168C18.3747 11.7137 18.5626 11.6472 18.758 11.6217C19.1202 11.5868 19.4835 11.6752 19.7893 11.8725C19.8453 11.9094 19.8981 11.9508 19.9472 11.9964C20.2269 12.2444 20.4671 12.5337 20.6595 12.8542C21.105 13.6505 21.4911 14.4786 21.8147 15.3318C22.4836 17.2147 23.0534 19.5157 23.0534 19.5157L24.7567 26.2298C25.9955 30.7946 27.0453 33.012 27.0453 33.012C29.6313 38.9333 33.5861 40.5995 33.5861 40.5995C35.5114 41.6292 37.6526 42.1894 39.8356 42.2346C41.9195 42.2913 43.9864 41.8463 45.8622 40.937C47.9189 39.9256 49.7231 38.4663 51.1424 36.6664C52.0994 35.5577 53.5085 32.8572 53.5085 32.8572C55.0622 29.7612 56.2821 26.5087 57.1474 23.1546C57.7002 21.0649 58.1436 18.9479 58.4759 16.8121C58.6432 15.7529 58.8011 14.6876 58.9281 13.6192C59.0863 12.6075 59.0547 11.5751 58.8352 10.5749C58.789 10.3951 58.7324 10.2183 58.6648 10.0453C58.1672 8.79021 57.2443 7.74996 56.0572 7.10636C55.1774 6.63863 54.1951 6.39704 53.1988 6.40336Z" fill="url(#paint33_radial)"/>
<path d="M53.1988 6.40336C52.7067 6.40227 52.2168 6.46365 51.7402 6.58607C52.8265 8.15584 53.7488 9.83281 54.4933 11.5907C54.8315 12.3467 55.0055 13.1657 55.0043 13.9939C55.0027 14.7609 54.8501 15.5201 54.5549 16.2281C54.2598 16.9361 53.8284 17.5791 53.2849 18.1203C52.7414 18.6616 52.0966 19.0904 51.3871 19.3824C50.6779 19.6745 49.9182 19.8239 49.1511 19.8223C48.1143 19.8203 47.0966 19.5424 46.2029 19.0171L45.6021 21.2376C44.512 24.8826 43.7439 26.2917 43.7439 26.2917C43.3209 27.28 42.8173 28.2318 42.2388 29.1378C41.8393 29.7293 41.3283 30.3239 40.6284 30.55C40.385 30.6348 40.1249 30.6603 39.8697 30.6243C39.5934 30.5908 39.3268 30.5013 39.0862 30.3611C38.626 30.015 38.2599 29.5593 38.0208 29.0356C37.7248 28.4542 37.459 27.8577 37.2249 27.2487C36.7077 25.9913 35.9087 22.8944 35.9087 22.8944L35.0819 19.6519L34.255 16.3847L33.6666 14.2385C32.1181 8.64862 29.975 5.89856 29.975 5.89856C28.2906 3.49672 25.9042 1.67498 23.1432 0.683365C19.941 -0.465589 16.5809 0.181667 16.5809 0.181667C11.3161 1.21603 8.55058 4.82703 7.3335 6.5644C7.89054 6.70986 8.42358 6.93516 8.91602 7.23333C9.57498 7.62772 10.1445 8.15509 10.5884 8.78179C11.3812 9.90906 11.5608 11.312 11.7187 12.6529C12.051 15.5592 12.6248 18.4328 13.4344 21.2438C15.2182 15.3287 17.3582 12.5724 17.3582 12.5724C17.5973 12.2753 17.8841 12.02 18.2068 11.8168C18.3747 11.7137 18.5626 11.6472 18.758 11.6217C19.1202 11.5868 19.4835 11.6752 19.7893 11.8725C19.8453 11.9094 19.8981 11.9508 19.9472 11.9964C20.2269 12.2444 20.4671 12.5337 20.6595 12.8542C21.105 13.6505 21.4911 14.4786 21.8147 15.3318C22.4836 17.2147 23.0534 19.5157 23.0534 19.5157L24.7567 26.2298C25.9955 30.7946 27.0453 33.012 27.0453 33.012C29.6313 38.9333 33.5861 40.5995 33.5861 40.5995C35.5114 41.6292 37.6526 42.1894 39.8356 42.2346C41.9195 42.2913 43.9864 41.8463 45.8622 40.937C47.9189 39.9256 49.7231 38.4663 51.1424 36.6664C52.0994 35.5577 53.5085 32.8572 53.5085 32.8572C55.0622 29.7612 56.2821 26.5087 57.1474 23.1546C57.7002 21.0649 58.1436 18.9479 58.4759 16.8121C58.6432 15.7529 58.8011 14.6876 58.9281 13.6192C59.0863 12.6075 59.0547 11.5751 58.8352 10.5749C58.789 10.3951 58.7324 10.2183 58.6648 10.0453C58.1672 8.79021 57.2443 7.74996 56.0572 7.10636C55.1774 6.63863 54.1951 6.39704 53.1988 6.40336Z" fill="url(#paint34_linear)"/>
<defs>
<linearGradient id="paint0_linear" x1="2.64476" y1="28.5308" x2="48.5533" y2="9.97407" gradientUnits="userSpaceOnUse">
<stop offset="0.13" stop-color="#1CBBF3"/>
<stop offset="0.34" stop-color="#1F99A5"/>
<stop offset="0.45" stop-color="#209CA6"/>
<stop offset="0.51" stop-color="#24A4AA"/>
<stop offset="0.57" stop-color="#2BB3B0"/>
<stop offset="0.6" stop-color="#30BDB4"/>
<stop offset="0.79" stop-color="#38BA90"/>
<stop offset="1" stop-color="#60F05A"/>
</linearGradient>
<radialGradient id="paint1_radial" cx="0" cy="0" r="1" gradientUnits="userSpaceOnUse" gradientTransform="translate(33.2056 17.63) rotate(74.32) scale(21.9416 16.6756)">
<stop stop-color="#227B60"/>
<stop offset="0.14" stop-color="#227B60" stop-opacity="0.81"/>
<stop offset="0.58" stop-color="#227B60" stop-opacity="0.23"/>
<stop offset="0.78" stop-color="#227B60" stop-opacity="0"/>
</radialGradient>
<radialGradient id="paint2_radial" cx="0" cy="0" r="1" gradientUnits="userSpaceOnUse" gradientTransform="translate(36.388 16.1053) rotate(91.1458) scale(14.8372 11.2747)">
<stop stop-color="#227B60"/>
<stop offset="0.25" stop-color="#227B60" stop-opacity="0.7"/>
<stop offset="0.71" stop-color="#227B60" stop-opacity="0.2"/>
<stop offset="0.92" stop-color="#227B60" stop-opacity="0"/>
</radialGradient>
<radialGradient id="paint3_radial" cx="0" cy="0" r="1" gradientUnits="userSpaceOnUse" gradientTransform="translate(35.8157 16.6496) rotate(88.6) scale(13.8308 9.81987)">
<stop stop-color="#227B60"/>
<stop offset="0.07" stop-color="#227B60" stop-opacity="0.9"/>
<stop offset="0.34" stop-color="#227B60" stop-opacity="0.51"/>
<stop offset="0.59" stop-color="#227B60" stop-opacity="0.23"/>
<stop offset="0.79" stop-color="#227B60" stop-opacity="0.06"/>
<stop offset="0.92" stop-color="#227B60" stop-opacity="0"/>
</radialGradient>
<radialGradient id="paint4_radial" cx="0" cy="0" r="1" gradientUnits="userSpaceOnUse" gradientTransform="translate(36.0498 16.0192) rotate(88.6) scale(11.1675 7.9289)">
<stop stop-color="#227B60"/>
<stop offset="0.36" stop-color="#227B60" stop-opacity="0.63"/>
<stop offset="0.92" stop-color="#227B60" stop-opacity="0"/>
</radialGradient>
<radialGradient id="paint5_radial" cx="0" cy="0" r="1" gradientUnits="userSpaceOnUse" gradientTransform="translate(36.537 16.647) rotate(88.6) scale(8.90672 5.7003)">
<stop stop-color="#20735A"/>
<stop offset="0.15" stop-color="#20745A" stop-opacity="0.93"/>
<stop offset="0.38" stop-color="#21755C" stop-opacity="0.74"/>
<stop offset="0.67" stop-color="#21785D" stop-opacity="0.43"/>
<stop offset="1" stop-color="#227B60" stop-opacity="0"/>
</radialGradient>
<radialGradient id="paint6_radial" cx="0" cy="0" r="1" gradientUnits="userSpaceOnUse" gradientTransform="translate(37.7302 18.0676) rotate(23.8) scale(14.3325 10.7494)">
<stop stop-color="#227A61"/>
<stop offset="0.36" stop-color="#227A61" stop-opacity="0.56"/>
<stop offset="0.72" stop-color="#227A61" stop-opacity="0.16"/>
<stop offset="0.9" stop-color="#227A61" stop-opacity="0"/>
</radialGradient>
<radialGradient id="paint7_radial" cx="0" cy="0" r="1" gradientUnits="userSpaceOnUse" gradientTransform="translate(33.9315 -4.32654) rotate(35.2724) scale(19.1141 17.477)">
<stop stop-color="#3CD9C3"/>
<stop offset="0.07" stop-color="#3BD7C1" stop-opacity="0.9"/>
<stop offset="0.41" stop-color="#38CEB9" stop-opacity="0.42"/>
<stop offset="0.65" stop-color="#36C8B4" stop-opacity="0.12"/>
<stop offset="0.76" stop-color="#35C6B2" stop-opacity="0"/>
</radialGradient>
<radialGradient id="paint8_radial" cx="0" cy="0" r="1" gradientUnits="userSpaceOnUse" gradientTransform="translate(16603.1 -8678.72) rotate(35.2724) scale(3394.87 2383.01)">
<stop stop-color="#3CD9C3"/>
<stop offset="0.07" stop-color="#3BD7C1" stop-opacity="0.9"/>
<stop offset="0.41" stop-color="#38CEB9" stop-opacity="0.42"/>
<stop offset="0.65" stop-color="#36C8B4" stop-opacity="0.12"/>
<stop offset="0.76" stop-color="#35C6B2" stop-opacity="0"/>
</radialGradient>
<radialGradient id="paint9_radial" cx="0" cy="0" r="1" gradientUnits="userSpaceOnUse" gradientTransform="translate(41.5447 21.3671) rotate(100.972) scale(16.8579 20.8317)">
<stop stop-color="#237F66" stop-opacity="0.8"/>
<stop offset="0.06" stop-color="#2C8C70" stop-opacity="0.65"/>
<stop offset="0.21" stop-color="#3DA785" stop-opacity="0.37"/>
<stop offset="0.35" stop-color="#4ABA93" stop-opacity="0.17"/>
<stop offset="0.47" stop-color="#51C59C" stop-opacity="0.04"/>
<stop offset="0.56" stop-color="#54C99F" stop-opacity="0"/>
</radialGradient>
<radialGradient id="paint10_radial" cx="0" cy="0" r="1" gradientUnits="userSpaceOnUse" gradientTransform="translate(31.1034 22.5666) rotate(-50.82) scale(22.0283 23.7906)">
<stop stop-color="#167C8A"/>
<stop offset="0.04" stop-color="#167C8A" stop-opacity="0.93"/>
<stop offset="0.33" stop-color="#177F8D" stop-opacity="0.43"/>
<stop offset="0.54" stop-color="#17818F" stop-opacity="0.12"/>
<stop offset="0.65" stop-color="#178290" stop-opacity="0"/>
</radialGradient>
<radialGradient id="paint11_radial" cx="0" cy="0" r="1" gradientUnits="userSpaceOnUse" gradientTransform="translate(29.7819 24.7919) rotate(-31.66) scale(21.4895 16.9767)">
<stop offset="0.05" stop-color="#177D87"/>
<stop offset="0.11" stop-color="#177E89" stop-opacity="0.8"/>
<stop offset="0.21" stop-color="#177F8B" stop-opacity="0.52"/>
<stop offset="0.32" stop-color="#17818D" stop-opacity="0.29"/>
<stop offset="0.42" stop-color="#17818F" stop-opacity="0.13"/>
<stop offset="0.51" stop-color="#178290" stop-opacity="0.03"/>
<stop offset="0.6" stop-color="#178290" stop-opacity="0"/>
</radialGradient>
<radialGradient id="paint12_radial" cx="0" cy="0" r="1" gradientUnits="userSpaceOnUse" gradientTransform="translate(24.4828 25.1625) rotate(-130.539) scale(12.8033 10.0816)">
<stop offset="0.26" stop-color="#177F8A"/>
<stop offset="0.27" stop-color="#177F8A" stop-opacity="0.98"/>
<stop offset="0.38" stop-color="#17808C" stop-opacity="0.68"/>
<stop offset="0.5" stop-color="#17818D" stop-opacity="0.43"/>
<stop offset="0.62" stop-color="#17818F" stop-opacity="0.24"/>
<stop offset="0.74" stop-color="#17828F" stop-opacity="0.11"/>
<stop offset="0.86" stop-color="#178290" stop-opacity="0.03"/>
<stop offset="1" stop-color="#178290" stop-opacity="0"/>
</radialGradient>
<radialGradient id="paint13_radial" cx="0" cy="0" r="1" gradientUnits="userSpaceOnUse" gradientTransform="translate(22.1618 28.3097) rotate(-173.11) scale(12.0098)">
<stop stop-color="#13656E"/>
<stop offset="0.11" stop-color="#13646E" stop-opacity="0.73"/>
<stop offset="0.27" stop-color="#12646E" stop-opacity="0.41"/>
<stop offset="0.42" stop-color="#12636E" stop-opacity="0.18"/>
<stop offset="0.55" stop-color="#12636E" stop-opacity="0.05"/>
<stop offset="0.66" stop-color="#12636E" stop-opacity="0"/>
</radialGradient>
<radialGradient id="paint14_radial" cx="0" cy="0" r="1" gradientUnits="userSpaceOnUse" gradientTransform="translate(21.8467 30.0982) rotate(-119.32) scale(8.39882 7.05501)">
<stop offset="0.13" stop-color="#146A73"/>
<stop offset="0.24" stop-color="#156F79" stop-opacity="0.79"/>
<stop offset="0.45" stop-color="#167783" stop-opacity="0.45"/>
<stop offset="0.65" stop-color="#167D8A" stop-opacity="0.2"/>
<stop offset="0.82" stop-color="#17818E" stop-opacity="0.05"/>
<stop offset="0.95" stop-color="#178290" stop-opacity="0"/>
</radialGradient>
<radialGradient id="paint15_radial" cx="0" cy="0" r="1" gradientUnits="userSpaceOnUse" gradientTransform="translate(21.1923 26.5976) rotate(-55.9925) scale(7.90078 6.25917)">
<stop stop-color="#198E9C"/>
<stop offset="0.1" stop-color="#198E9C" stop-opacity="0.87"/>
<stop offset="0.41" stop-color="#198E9C" stop-opacity="0.5"/>
<stop offset="0.67" stop-color="#198E9C" stop-opacity="0.23"/>
<stop offset="0.88" stop-color="#198E9C" stop-opacity="0.06"/>
<stop offset="1" stop-color="#198E9C" stop-opacity="0"/>
</radialGradient>
<linearGradient id="paint16_linear" x1="5.60233" y1="-0.961119" x2="25.8561" y2="17.7845" gradientUnits="userSpaceOnUse">
<stop offset="0.13" stop-color="#2BF9FF"/>
<stop offset="0.27" stop-color="#29F9FF" stop-opacity="0.64"/>
<stop offset="0.4" stop-color="#27FAFF" stop-opacity="0.3"/>
<stop offset="0.49" stop-color="#26FAFF" stop-opacity="0.08"/>
<stop offset="0.54" stop-color="#26FAFF" stop-opacity="0"/>
</linearGradient>
<linearGradient id="paint17_linear" x1="-5.86863" y1="29.6302" x2="17.7917" y2="22.9223" gradientUnits="userSpaceOnUse">
<stop stop-color="#26FAFF"/>
<stop offset="0.06" stop-color="#26FAFF" stop-opacity="0.88"/>
<stop offset="0.24" stop-color="#26FAFF" stop-opacity="0.51"/>
<stop offset="0.39" stop-color="#26FAFF" stop-opacity="0.23"/>
<stop offset="0.5" stop-color="#26FAFF" stop-opacity="0.06"/>
<stop offset="0.55" stop-color="#26FAFF" stop-opacity="0"/>
</linearGradient>
<linearGradient id="paint18_linear" x1="0.399502" y1="28.8064" x2="27.067" y2="19.302" gradientUnits="userSpaceOnUse">
<stop stop-color="#21DEFF"/>
<stop offset="0.04" stop-color="#21DEFF" stop-opacity="0.88"/>
<stop offset="0.17" stop-color="#21DEFF" stop-opacity="0.51"/>
<stop offset="0.27" stop-color="#21DEFF" stop-opacity="0.23"/>
<stop offset="0.34" stop-color="#21DEFF" stop-opacity="0.06"/>
<stop offset="0.38" stop-color="#21DEFF" stop-opacity="0"/>
</linearGradient>
<linearGradient id="paint19_linear" x1="25.7384" y1="15.0499" x2="40.6531" y2="39.3761" gradientUnits="userSpaceOnUse">
<stop offset="0.62" stop-color="#21DEFF" stop-opacity="0"/>
<stop offset="0.66" stop-color="#21DEFF" stop-opacity="0.06"/>
<stop offset="0.73" stop-color="#21DEFF" stop-opacity="0.23"/>
<stop offset="0.83" stop-color="#21DEFF" stop-opacity="0.51"/>
<stop offset="0.96" stop-color="#21DEFF" stop-opacity="0.88"/>
<stop offset="1" stop-color="#21DEFF"/>
</linearGradient>
<linearGradient id="paint20_linear" x1="42.3378" y1="24.1392" x2="39.9904" y2="12.6961" gradientUnits="userSpaceOnUse">
<stop stop-color="#44B044"/>
<stop offset="0.11" stop-color="#44B044" stop-opacity="0.8"/>
<stop offset="0.27" stop-color="#44B044" stop-opacity="0.52"/>
<stop offset="0.43" stop-color="#44B044" stop-opacity="0.29"/>
<stop offset="0.58" stop-color="#44B044" stop-opacity="0.13"/>
<stop offset="0.7" stop-color="#44B044" stop-opacity="0.03"/>
<stop offset="0.8" stop-color="#44B044" stop-opacity="0"/>
</linearGradient>
<linearGradient id="paint21_linear" x1="9.60663" y1="12.2782" x2="58.9807" y2="28.6237" gradientUnits="userSpaceOnUse">
<stop stop-color="#3066FB"/>
<stop offset="0.38" stop-color="#2F64F7"/>
<stop offset="0.74" stop-color="#2857D9"/>
<stop offset="1" stop-color="#3C7EFF"/>
</linearGradient>
<radialGradient id="paint22_radial" cx="0" cy="0" r="1" gradientUnits="userSpaceOnUse" gradientTransform="translate(44.4602 19.7384) rotate(98.69) scale(26.4043 17.4268)">
<stop stop-color="#1A3D9C"/>
<stop offset="0.4" stop-color="#1A3D9C" stop-opacity="0.42"/>
<stop offset="0.7" stop-color="#1A3D9C" stop-opacity="0"/>
</radialGradient>
<radialGradient id="paint23_radial" cx="0" cy="0" r="1" gradientUnits="userSpaceOnUse" gradientTransform="translate(7767.97 12848.5) rotate(98.69) scale(3247.92 1751.58)">
<stop stop-color="#1A3D9C"/>
<stop offset="0.4" stop-color="#1A3D9C" stop-opacity="0.42"/>
<stop offset="0.7" stop-color="#1A3D9C" stop-opacity="0"/>
</radialGradient>
<radialGradient id="paint24_radial" cx="0" cy="0" r="1" gradientUnits="userSpaceOnUse" gradientTransform="translate(5868.2 12287.3) rotate(98.6156) scale(3868.07 1598.29)">
<stop stop-color="#1A3D9C"/>
<stop offset="0.4" stop-color="#1A3D9C" stop-opacity="0.42"/>
<stop offset="0.7" stop-color="#1A3D9C" stop-opacity="0"/>
</radialGradient>
<radialGradient id="paint25_radial" cx="0" cy="0" r="1" gradientUnits="userSpaceOnUse" gradientTransform="translate(40.259 17.96) rotate(83.0888) scale(23.0795 16.1034)">
<stop stop-color="#1A3D9C"/>
<stop offset="0.16" stop-color="#1A3D9C" stop-opacity="0.69"/>
<stop offset="0.33" stop-color="#1A3D9C" stop-opacity="0.4"/>
<stop offset="0.49" stop-color="#1A3D9C" stop-opacity="0.18"/>
<stop offset="0.61" stop-color="#1A3D9C" stop-opacity="0.05"/>
<stop offset="0.7" stop-color="#1A3D9C" stop-opacity="0"/>
</radialGradient>
<radialGradient id="paint26_radial" cx="0" cy="0" r="1" gradientUnits="userSpaceOnUse" gradientTransform="translate(45.3441 22.282) rotate(74.64) scale(22.1801 15.0825)">
<stop stop-color="#18388F"/>
<stop offset="0.37" stop-color="#193B96" stop-opacity="0.45"/>
<stop offset="0.7" stop-color="#1A3D9C" stop-opacity="0"/>
</radialGradient>
<radialGradient id="paint27_radial" cx="0" cy="0" r="1" gradientUnits="userSpaceOnUse" gradientTransform="translate(43.1348 28.1936) rotate(74.64) scale(10.3127 9.79708)">
<stop stop-color="#18388F"/>
<stop offset="0.09" stop-color="#183992" stop-opacity="0.78"/>
<stop offset="0.22" stop-color="#193B96" stop-opacity="0.5"/>
<stop offset="0.35" stop-color="#193C98" stop-opacity="0.28"/>
<stop offset="0.47" stop-color="#1A3C9A" stop-opacity="0.13"/>
<stop offset="0.59" stop-color="#1A3D9C" stop-opacity="0.03"/>
<stop offset="0.7" stop-color="#1A3D9C" stop-opacity="0"/>
</radialGradient>
<radialGradient id="paint28_radial" cx="0" cy="0" r="1" gradientUnits="userSpaceOnUse" gradientTransform="translate(43.3822 29.9529) rotate(74.64) scale(10.3127 9.79708)">
<stop stop-color="#1A3D9C" stop-opacity="0.8"/>
<stop offset="0.01" stop-color="#1A3D9C" stop-opacity="0.78"/>
<stop offset="0.24" stop-color="#1A3D9C" stop-opacity="0.45"/>
<stop offset="0.44" stop-color="#1A3D9C" stop-opacity="0.2"/>
<stop offset="0.6" stop-color="#1A3D9C" stop-opacity="0.05"/>
<stop offset="0.7" stop-color="#1A3D9C" stop-opacity="0"/>
</radialGradient>
<radialGradient id="paint29_radial" cx="0" cy="0" r="1" gradientUnits="userSpaceOnUse" gradientTransform="translate(16.6954 23.8782) rotate(67.0273) scale(24.6113 16.3319)">
<stop stop-color="#1A3D9C"/>
<stop offset="0.4" stop-color="#1A3D9C" stop-opacity="0.56"/>
<stop offset="0.48" stop-color="#1A3D9C" stop-opacity="0.43"/>
<stop offset="0.69" stop-color="#1A3D9C" stop-opacity="0.12"/>
<stop offset="0.79" stop-color="#1A3D9C" stop-opacity="0"/>
</radialGradient>
<radialGradient id="paint30_radial" cx="0" cy="0" r="1" gradientUnits="userSpaceOnUse" gradientTransform="translate(15.1202 18.1112) rotate(76.1028) scale(18.255 12.0518)">
<stop stop-color="#1A3D9C"/>
<stop offset="0.06" stop-color="#1A3D9C" stop-opacity="0.88"/>
<stop offset="0.21" stop-color="#1A3D9C" stop-opacity="0.61"/>
<stop offset="0.36" stop-color="#1A3D9C" stop-opacity="0.39"/>
<stop offset="0.51" stop-color="#1A3D9C" stop-opacity="0.22"/>
<stop offset="0.67" stop-color="#1A3D9C" stop-opacity="0.1"/>
<stop offset="0.83" stop-color="#1A3D9C" stop-opacity="0.02"/>
<stop offset="1" stop-color="#1A3D9C" stop-opacity="0"/>
</radialGradient>
<radialGradient id="paint31_radial" cx="0" cy="0" r="1" gradientUnits="userSpaceOnUse" gradientTransform="translate(15.1202 18.1112) rotate(76.1028) scale(18.255 12.0518)">
<stop stop-color="#1B3E9E"/>
<stop offset="0.06" stop-color="#1B3E9E" stop-opacity="0.87"/>
<stop offset="0.21" stop-color="#1B3E9D" stop-opacity="0.61"/>
<stop offset="0.36" stop-color="#1A3D9D" stop-opacity="0.39"/>
<stop offset="0.52" stop-color="#1A3D9C" stop-opacity="0.22"/>
<stop offset="0.67" stop-color="#1A3D9C" stop-opacity="0.1"/>
<stop offset="0.83" stop-color="#1A3D9C" stop-opacity="0.02"/>
<stop offset="1" stop-color="#1A3D9C" stop-opacity="0"/>
</radialGradient>
<radialGradient id="paint32_radial" cx="0" cy="0" r="1" gradientUnits="userSpaceOnUse" gradientTransform="translate(15.8125 16.3314) rotate(76.1028) scale(13.9659 9.22013)">
<stop stop-color="#183991"/>
<stop offset="0.03" stop-color="#183992" stop-opacity="0.95"/>
<stop offset="0.18" stop-color="#193A95" stop-opacity="0.66"/>
<stop offset="0.34" stop-color="#193B97" stop-opacity="0.42"/>
<stop offset="0.5" stop-color="#1A3C99" stop-opacity="0.24"/>
<stop offset="0.66" stop-color="#1A3D9B" stop-opacity="0.1"/>
<stop offset="0.82" stop-color="#1A3D9C" stop-opacity="0.03"/>
<stop offset="1" stop-color="#1A3D9C" stop-opacity="0"/>
</radialGradient>
<radialGradient id="paint33_radial" cx="0" cy="0" r="1" gradientUnits="userSpaceOnUse" gradientTransform="translate(18.4279 18.1747) rotate(87.1376) scale(11.0357 9.7147)">
<stop offset="0.04" stop-color="#2453D6" stop-opacity="0.6"/>
<stop offset="0.2" stop-color="#2453D6" stop-opacity="0.49"/>
<stop offset="0.52" stop-color="#2453D6" stop-opacity="0.2"/>
<stop offset="0.73" stop-color="#2453D6" stop-opacity="0"/>
</radialGradient>
<linearGradient id="paint34_linear" x1="41.6876" y1="-7.8827" x2="29.2163" y2="22.944" gradientUnits="userSpaceOnUse">
<stop stop-color="#3774FF"/>
<stop offset="0.05" stop-color="#3774FF" stop-opacity="0.91"/>
<stop offset="0.16" stop-color="#3774FF" stop-opacity="0.66"/>
<stop offset="0.32" stop-color="#3774FF" stop-opacity="0.28"/>
<stop offset="0.43" stop-color="#3774FF" stop-opacity="0"/>
</linearGradient>
</defs>
</svg>
